<?xml version="1.0"?>
<svg xmlns="http://www.w3.org/2000/svg" id="Capa_1" enable-background="new 0 0 512 512" height="512px" viewBox="0 0 512 512" width="512px"><path d="m510.365 231.525-61.197-122.359c-11.188-22.371-36.092-34.375-60.551-29.196l-44.7 9.465c-8.102 1.715-13.279 9.676-11.564 17.781s9.672 13.288 17.774 11.569l44.7-9.465c11.12-2.354 22.437 3.102 27.522 13.271l50.338 100.647c-13.087 0-418.126 0-433.25 0l50.338-100.647c5.086-10.168 16.405-15.628 27.522-13.271l44.7 9.465c8.102 1.715 16.059-3.464 17.774-11.569 1.715-8.104-3.463-16.065-11.564-17.781l-44.7-9.465c-24.467-5.18-49.363 6.826-60.551 29.196l-60.888 121.743c-3.599 6.413-1.263 7.96-1.918 89.302 0 62.317 50.679 113.016 112.972 113.016 55.153 0 102.374-39.921 111.442-94.479l.494-2.975c17.904-14.902 44.021-14.917 61.952-.034l.5 3.008c9.047 54.428 56.157 94.479 111.442 94.479 62.293 0 112.972-50.699 112.972-113.016-.365-87.026 1.086-83.398-1.559-88.685zm-469.946 110.428c-5.855-5.858-5.855-15.355 0-21.213l60.08-60.103c5.856-5.858 15.349-5.858 21.205 0 5.855 5.858 5.855 15.355 0 21.213l-60.08 60.103c-5.857 5.859-15.349 5.857-21.205 0zm166.084-60.086-105.317 105.358c-5.856 5.859-15.349 5.858-21.205 0s-5.856-15.355 0-21.213l105.318-105.358c5.856-5.858 15.349-5.858 21.205 0 5.855 5.858 5.855 15.356-.001 21.213zm49.553 12.723c-.005 0-.011 0-.016 0-8.562.002-16.906 1.386-24.802 4.007l7.54-45.36h34.52l7.537 45.348c-7.89-2.615-16.226-3.995-24.779-3.995zm59.09 47.363c-5.856-5.858-5.856-15.355 0-21.213l60.079-60.103c5.856-5.858 15.349-5.858 21.205 0s5.856 15.355 0 21.213l-60.079 60.103c-5.856 5.859-15.35 5.857-21.205 0zm166.084-60.086-105.317 105.358c-5.856 5.859-15.35 5.857-21.205 0-5.856-5.858-5.856-15.355 0-21.213l105.317-105.358c5.855-5.858 15.349-5.858 21.205 0 5.855 5.858 5.855 15.355 0 21.213z" fill="#FFFFFF"/></svg>
