<svg id="_01_align_center" data-name="01 align center" xmlns="http://www.w3.org/2000/svg" width="15" height="14.999" viewBox="0 0 15 14.999">
  <path id="Path_221" data-name="Path 221" d="M6.75,7.5A3.75,3.75,0,1,1,10.5,3.75,3.75,3.75,0,0,1,6.75,7.5Zm0-6.249a2.5,2.5,0,1,0,2.5,2.5A2.5,2.5,0,0,0,6.75,1.25Z" transform="translate(-1.125)"/>
  <path id="Path_222" data-name="Path 222" d="M11.249,20.249H10V17.1A1.85,1.85,0,0,0,8.151,15.25H3.1A1.85,1.85,0,0,0,1.25,17.1v3.152H0V17.1A3.1,3.1,0,0,1,3.1,14H8.151a3.1,3.1,0,0,1,3.1,3.1Z" transform="translate(0 -5.251)"/>
  <path id="Path_223" data-name="Path 223" d="M19.749,7.875A1.317,1.317,0,0,0,18.5,9.25a1.256,1.256,0,1,0-2.5,0c0,1.437,2.5,3.208,2.5,3.208S21,10.69,21,9.25A1.317,1.317,0,0,0,19.749,7.875Z" transform="translate(-6 -2.954)"/>
</svg>
