<svg xmlns="http://www.w3.org/2000/svg" width="15" height="16.685" viewBox="0 0 15 16.685">
  <path id="fi-rs-search-alt" d="M6.1,5.562V4.171h5.465v1.39ZM4.049,15.295a.689.689,0,0,1-.683-.7V2.086a.689.689,0,0,1,.683-.7H14.3v6.6a4.444,4.444,0,0,1,1.366.918V0H4.049A2.068,2.068,0,0,0,2,2.086V14.6a2.068,2.068,0,0,0,2.049,2.086h8.539a4.387,4.387,0,0,1-3.2-1.39Zm11.985,1.361-1.815-1.847a3.006,3.006,0,0,1-1.63.487,3.129,3.129,0,1,1,3.074-3.128,3.139,3.139,0,0,1-.478,1.659L17,15.672ZM12.589,13.9a1.738,1.738,0,1,0-1.708-1.738A1.723,1.723,0,0,0,12.589,13.9Z" transform="translate(-2)"/>
</svg>
