<svg xmlns="http://www.w3.org/2000/svg" width="90" height="90" viewBox="0 0 90 90">
  <g id="Out_line" data-name="Out line" transform="translate(-16 -16)">
    <path id="Path_230" data-name="Path 230" d="M291,91a1.5,1.5,0,1,0,0-3h-1.5a1.5,1.5,0,0,0,0,3Z" transform="translate(-221 -58.5)" fill="#fff"/>
    <path id="Path_231" data-name="Path 231" d="M114.454,52.063l-6.823-2.924L102.5,46.573V41.64l2.809-14.981A9,9,0,0,0,96.463,16H77a4.5,4.5,0,0,0-.416,8.98L75.57,29.037l-2.962,7.406A1.5,1.5,0,0,0,74,38.5h1.869l2.689,9.412A1.5,1.5,0,0,0,80,49h1.046l-.234.156L72.37,52.322a7.484,7.484,0,0,0-4.81,6.1L65.369,77.247,60.5,72.379V68.5a1.5,1.5,0,0,0-.439-1.061l-6.568-6.568a4.682,4.682,0,0,0-7.636,1.519A4.6,4.6,0,0,0,46.44,67H44.621l-4.629-4.629a4.682,4.682,0,0,0-6.621,6.621l6.568,6.568a1.5,1.5,0,0,0,.766.41l7.465,1.493,3.4.849-1.127,1.127a1.5,1.5,0,0,0-.092,2.021l15,18a1.5,1.5,0,0,0,1.084.538l.068,0a1.5,1.5,0,0,0,1.061-.439L72.5,94.621V106h3V65.5h-3V90.379l-5.9,5.9L53.529,80.592,59,75.121l6.439,6.439,3,3,2.121-2.121-2.487-2.487,2.464-21.167a4.488,4.488,0,0,1,2.885-3.655l7.029-2.636,2.592,10.369a1.5,1.5,0,0,0,2.543.666l.377.754L83.641,87.811a4.471,4.471,0,0,0,.064,4.641l-.93,1.045a1.5,1.5,0,0,1-1.12.5H78.7a3,3,0,0,0-2.3,4.921l4.55,5.46A4.489,4.489,0,0,0,84.405,106h3.5a4.508,4.508,0,0,0,2.894-1.054l6.621-5.559.775,1.357a1.5,1.5,0,0,0,2.058.551L110,95.612V106h3V93.862l5.256-3.066A1.5,1.5,0,0,0,119,89.5V58.956A7.491,7.491,0,0,0,114.454,52.063ZM48.864,74.545l-.07-.016-7.055-1.411-6.247-6.247a1.682,1.682,0,1,1,2.379-2.379l5.068,5.068A1.5,1.5,0,0,0,44,70h7.5a1.5,1.5,0,0,0,0-3h-.879l-1.629-1.629a1.682,1.682,0,0,1,2.379-2.379L57.5,69.121v3.257l-3.46,3.46Zm40-9.045h1.7l.878,21.822-1.454-.969a4.465,4.465,0,0,0-3.114-.709Zm2.214-3H88.427l-.772-1.543,2.668-3.335,1.739,2.9ZM92.5,55.416l8.638-6.17,3.331,1.665-9.17,9.17ZM75.5,20.5A1.5,1.5,0,0,1,77,19H96.463a6,6,0,0,1,5.9,7.106l-2.31,12.323L95,33.379v-.7A4.687,4.687,0,0,0,90.5,28V23.5A1.5,1.5,0,0,0,89,22H77A1.5,1.5,0,0,1,75.5,20.5Zm2.942,16.088A1.5,1.5,0,0,0,77,35.5h-.784l2.177-5.443a1.462,1.462,0,0,0,.062-.193L79.671,25H87.5v3.943a4.749,4.749,0,0,0-.493.428l-2.068,2.068,2.121,2.121,2.068-2.068A1.682,1.682,0,0,1,92,32.682v1.575a5.088,5.088,0,0,1-1.5,3.621,2.122,2.122,0,0,1-3,0l-.439-.439-2.121,2.121.439.439a5.122,5.122,0,0,0,7.243,0,8.1,8.1,0,0,0,1.865-2.893L99.5,42.121v4.607l-8.55,6.107-3.061-5.1,2.172-2.172-2.121-2.121L85.379,46H81.131Zm4.769,14.574,2.312-1.541,3.154,5.257L85.221,59.2Zm5.66,51.487a1.5,1.5,0,0,1-.964.351h-3.5a1.5,1.5,0,0,1-1.152-.54L78.714,97h2.94a4.5,4.5,0,0,0,3.361-1.508L86.791,93.5a1.5,1.5,0,0,0,0-2L86.4,91.06a1.477,1.477,0,0,1,1.922-2.211l2.849,1.9A1.5,1.5,0,0,0,92,91h.629l3.28,5.74ZM116,88.638l-15.948,9.3-4.577-8.009,9.4-6.712A1.5,1.5,0,0,0,105.5,82V65.5h-3V81.228l-8.073,5.767-.912-22.669.4-.795a1.5,1.5,0,0,0,2.149.03l11.282-11.282,5.93,2.541A4.5,4.5,0,0,1,116,58.956Z" transform="translate(-13 0)" fill="#fff"/>
    <path id="Path_232" data-name="Path 232" d="M51.493,34.992a16.48,16.48,0,1,1-15.98,12.374l-2.905-.748A19.48,19.48,0,1,0,46.619,32.607l.748,2.905A16.565,16.565,0,0,1,51.493,34.992Z" transform="translate(-12.993 -12.992)" fill="#ffc861"/>
    <path id="Path_233" data-name="Path 233" d="M77.495,66.994a10.489,10.489,0,1,1-9.737,6.563l-2.781-1.126a13.489,13.489,0,1,0,7.455-7.455l1.126,2.781A10.442,10.442,0,0,1,77.495,66.994Z" transform="translate(-38.995 -38.994)" fill="#ffc861"/>
    <path id="Path_234" data-name="Path 234" d="M103.5,108a4.505,4.505,0,0,1-4.5-4.5H96a7.5,7.5,0,1,0,7.5-7.5v3a4.5,4.5,0,1,1,0,9Z" transform="translate(-65 -65)" fill="#ffc861"/>
    <path id="Path_235" data-name="Path 235" d="M22,31h6.879l8.561,8.561,2.121-2.121L31,28.879V22a1.5,1.5,0,0,0-.439-1.061l-4.5-4.5A1.5,1.5,0,0,0,25,16H22a1.5,1.5,0,0,0-1.5,1.5v3h-3A1.5,1.5,0,0,0,16,22v3a1.5,1.5,0,0,0,.439,1.061l4.5,4.5A1.5,1.5,0,0,0,22,31Zm2.379-12L28,22.621v3.257l-4.5-4.5V19ZM19,23.5h2.379l4.5,4.5H22.621L19,24.379Z" transform="translate(0 0)" fill="#ffc861"/>
  </g>
</svg>
