<svg xmlns="http://www.w3.org/2000/svg" width="90" height="90.89" viewBox="0 0 90 90.89">
  <g id="handshake" transform="translate(-2.35)">
    <g id="Group_171" data-name="Group 171" transform="translate(2.35 26.196)">
      <g id="Group_170" data-name="Group 170" transform="translate(0)">
        <path id="Path_254" data-name="Path 254" d="M90.211,153.492l-8.018,8.018L69.187,148.5l8.018-8.018-2.142-2.142-9.089,9.089-7.13,7.13H35.86l-7.13-7.13-9.089-9.089L17.5,140.486l8.018,8.018L12.51,161.511l-8.018-8.018L2.35,155.634l9.089,9.089,7.574,7.574,8.029,7.986L25.83,181.5a4.681,4.681,0,0,0-.037,6.62l.037.037a4.717,4.717,0,0,0,3.16,1.363,4.645,4.645,0,0,0,1.385,3.14,4.724,4.724,0,0,0,3.16,1.363,4.646,4.646,0,0,0,1.4,3.142,4.724,4.724,0,0,0,3.16,1.363,4.645,4.645,0,0,0,1.385,3.14,4.751,4.751,0,0,0,6.677,0l1.2-1.2,1.2,1.192a4.729,4.729,0,0,0,8.067-3.154,4.723,4.723,0,0,0,3.161-1.372,4.676,4.676,0,0,0,1.383-3.152,4.725,4.725,0,0,0,3.161-1.374,4.676,4.676,0,0,0,1.383-3.152,4.711,4.711,0,0,0,3.161-8.047L67.72,180.26l7.967-7.967,7.574-7.574,9.089-9.089Zm-75.559,10.16,13.006-13.006,5.432,5.432L20.084,169.085ZM30.385,186a1.715,1.715,0,0,1-2.424,0,1.653,1.653,0,0,1-.017-2.337l.017-.017,1.232-1.221,2.4,2.375Zm4.525,4.51a1.718,1.718,0,0,1-2.4,0,1.656,1.656,0,0,1-.014-2.342l.014-.014,1.226-1.212,2.39,2.375Zm4.564,4.5a1.718,1.718,0,0,1-2.424,0,1.653,1.653,0,0,1-.017-2.337l.017-.017,1.221-1.212,2.389,2.375Zm4.545,4.505a1.718,1.718,0,0,1-2.412,0,1.653,1.653,0,0,1-.017-2.337l.017-.017,1.212-1.2,2.389,2.375Zm22.725-13.589-.008.008h.006a1.707,1.707,0,0,1-2.406,0l-2.272-2.263a1.515,1.515,0,0,0-2.139,2.147l2.272,2.263a1.677,1.677,0,0,1,.008,2.371l-.008.008a1.707,1.707,0,0,1-2.406,0L57.519,188.2a1.515,1.515,0,1,0-2.139,2.147l2.272,2.263a1.677,1.677,0,0,1,.008,2.371l-.008.008a1.707,1.707,0,0,1-2.406,0l-2.272-2.263a1.515,1.515,0,1,0-2.139,2.147l2.272,2.263a1.677,1.677,0,0,1,.008,2.371l-.008.008a1.71,1.71,0,0,1-2.407,0L22.229,171.227l13.634-13.634h4.864l-11.119,11.38a1.515,1.515,0,0,0,.012,2.13,10.65,10.65,0,0,0,7.064,3.145,9.468,9.468,0,0,0,7.2-2.762,1.461,1.461,0,0,0,.18-.217l.548-.8a13.746,13.746,0,0,0,11.595,2.6l10.531,10.489A1.677,1.677,0,0,1,66.744,185.926Zm-1.158-7.8L59.231,171.8l1.148-.874a1.34,1.34,0,0,0,.151-.138l1.515-1.515L59.9,167.129l-1.441,1.441-1.31.988a10.53,10.53,0,0,1-11.77-2.424,1.515,1.515,0,0,0-2.322.217l-1.432,2.1a6.536,6.536,0,0,1-4.814,1.781,7.639,7.639,0,0,1-3.893-1.306L44.96,157.593H58.843l13.634,13.634Zm9.033-9.042L61.612,156.078l5.432-5.432,13.006,13.006Z" transform="translate(-2.35 -138.344)" fill="#fff"/>
      </g>
    </g>
    <g id="Group_173" data-name="Group 173" transform="translate(18.569 49.99)">
      <g id="Group_172" data-name="Group 172">
        <rect id="Rectangle_59" data-name="Rectangle 59" width="3.03" height="3.03" fill="#fff"/>
      </g>
    </g>
    <g id="Group_175" data-name="Group 175" transform="translate(73.104 49.99)">
      <g id="Group_174" data-name="Group 174">
        <rect id="Rectangle_60" data-name="Rectangle 60" width="3.03" height="3.03" fill="#fff"/>
      </g>
    </g>
    <g id="Group_177" data-name="Group 177" transform="translate(32.203)">
      <g id="Group_176" data-name="Group 176" transform="translate(0)">
        <path id="Path_255" data-name="Path 255" d="M178.184,27.267A12.132,12.132,0,0,0,190.3,15.148a1.515,1.515,0,0,0-1.515-1.515h-3.03a12.082,12.082,0,0,0-9.089,4.129V12.119h1.515a10.616,10.616,0,0,0,10.6-10.6A1.515,1.515,0,0,0,187.273,0h-3.03a10.6,10.6,0,0,0-9.089,5.17A10.6,10.6,0,0,0,166.065,0h-3.03a1.515,1.515,0,0,0-1.515,1.515,10.616,10.616,0,0,0,10.6,10.6h1.515v5.644a12.082,12.082,0,0,0-9.089-4.129h-3.03a1.515,1.515,0,0,0-1.515,1.515,12.132,12.132,0,0,0,12.119,12.119h1.515v2.4l-9.716,9.716h4.284l6.947-6.947,6.947,6.947h4.284l-9.716-9.716v-2.4Zm7.574-10.6h1.389a9.1,9.1,0,0,1-8.963,7.574H176.8A9.1,9.1,0,0,1,185.758,16.663ZM184.244,3.03h1.363a7.586,7.586,0,0,1-7.423,6.059h-1.363A7.586,7.586,0,0,1,184.244,3.03ZM172.125,9.089A7.586,7.586,0,0,1,164.7,3.03h1.363a7.586,7.586,0,0,1,7.423,6.059Zm0,15.148a9.1,9.1,0,0,1-8.963-7.574h1.389a9.1,9.1,0,0,1,8.963,7.574Z" transform="translate(-160.006)" fill="#ffc861"/>
      </g>
    </g>
  </g>
</svg>
