<svg xmlns="http://www.w3.org/2000/svg" width="88" height="88" viewBox="0 0 88 88">
  <g id="Group_145" data-name="Group 145" transform="translate(-947 -568)">
    <g id="Group_139" data-name="Group 139">
      <circle id="Ellipse_6" data-name="Ellipse 6" cx="4" cy="4" r="4" transform="translate(947 568)" fill="#83e4c8"/>
      <circle id="Ellipse_7" data-name="Ellipse 7" cx="4" cy="4" r="4" transform="translate(967 568)" fill="#83e4c8"/>
      <circle id="Ellipse_8" data-name="Ellipse 8" cx="4" cy="4" r="4" transform="translate(987 568)" fill="#83e4c8"/>
      <circle id="Ellipse_9" data-name="Ellipse 9" cx="4" cy="4" r="4" transform="translate(1007 568)" fill="#83e4c8"/>
      <circle id="Ellipse_10" data-name="Ellipse 10" cx="4" cy="4" r="4" transform="translate(1027 568)" fill="#83e4c8"/>
    </g>
    <g id="Group_140" data-name="Group 140" transform="translate(0 20)">
      <circle id="Ellipse_6-2" data-name="Ellipse 6" cx="4" cy="4" r="4" transform="translate(947 568)" fill="#83e4c8"/>
      <circle id="Ellipse_7-2" data-name="Ellipse 7" cx="4" cy="4" r="4" transform="translate(967 568)" fill="#83e4c8"/>
      <circle id="Ellipse_8-2" data-name="Ellipse 8" cx="4" cy="4" r="4" transform="translate(987 568)" fill="#83e4c8"/>
      <circle id="Ellipse_9-2" data-name="Ellipse 9" cx="4" cy="4" r="4" transform="translate(1007 568)" fill="#83e4c8"/>
      <circle id="Ellipse_10-2" data-name="Ellipse 10" cx="4" cy="4" r="4" transform="translate(1027 568)" fill="#83e4c8"/>
    </g>
    <g id="Group_141" data-name="Group 141" transform="translate(0 40)">
      <circle id="Ellipse_6-3" data-name="Ellipse 6" cx="4" cy="4" r="4" transform="translate(947 568)" fill="#83e4c8"/>
      <circle id="Ellipse_7-3" data-name="Ellipse 7" cx="4" cy="4" r="4" transform="translate(967 568)" fill="#83e4c8"/>
      <circle id="Ellipse_8-3" data-name="Ellipse 8" cx="4" cy="4" r="4" transform="translate(987 568)" fill="#83e4c8"/>
      <circle id="Ellipse_9-3" data-name="Ellipse 9" cx="4" cy="4" r="4" transform="translate(1007 568)" fill="#83e4c8"/>
      <circle id="Ellipse_10-3" data-name="Ellipse 10" cx="4" cy="4" r="4" transform="translate(1027 568)" fill="#83e4c8"/>
    </g>
    <g id="Group_142" data-name="Group 142" transform="translate(0 60)">
      <circle id="Ellipse_6-4" data-name="Ellipse 6" cx="4" cy="4" r="4" transform="translate(947 568)" fill="#83e4c8"/>
      <circle id="Ellipse_7-4" data-name="Ellipse 7" cx="4" cy="4" r="4" transform="translate(967 568)" fill="#83e4c8"/>
      <circle id="Ellipse_8-4" data-name="Ellipse 8" cx="4" cy="4" r="4" transform="translate(987 568)" fill="#83e4c8"/>
      <circle id="Ellipse_9-4" data-name="Ellipse 9" cx="4" cy="4" r="4" transform="translate(1007 568)" fill="#83e4c8"/>
      <circle id="Ellipse_10-4" data-name="Ellipse 10" cx="4" cy="4" r="4" transform="translate(1027 568)" fill="#83e4c8"/>
    </g>
    <g id="Group_143" data-name="Group 143" transform="translate(0 80)">
      <circle id="Ellipse_6-5" data-name="Ellipse 6" cx="4" cy="4" r="4" transform="translate(947 568)" fill="#83e4c8"/>
      <circle id="Ellipse_7-5" data-name="Ellipse 7" cx="4" cy="4" r="4" transform="translate(967 568)" fill="#83e4c8"/>
      <circle id="Ellipse_8-5" data-name="Ellipse 8" cx="4" cy="4" r="4" transform="translate(987 568)" fill="#83e4c8"/>
      <circle id="Ellipse_9-5" data-name="Ellipse 9" cx="4" cy="4" r="4" transform="translate(1007 568)" fill="#83e4c8"/>
      <circle id="Ellipse_10-5" data-name="Ellipse 10" cx="4" cy="4" r="4" transform="translate(1027 568)" fill="#83e4c8"/>
    </g>
  </g>
</svg>
