<svg width="2048" height="418" viewBox="0 0 2048 418" fill="none" xmlns="http://www.w3.org/2000/svg">
<path fill-rule="evenodd" clip-rule="evenodd" d="M2044.43 97.9028C1601.46 97.9028 1524.22 227.563 1192.19 227.563C860.167 227.563 475.176 0.364746 27.3733 0.364746C-420.429 0.364746 -558.755 153.847 -942.306 153.847C-1375.31 153.847 -1608.15 58.2882 -1608.15 87.2386C-1608.15 333.389 -1732.76 417.291 -1732.76 417.291L3443.8 417.291C3443.8 417.291 3593.16 227.563 3000.52 227.563C2653.76 227.563 2425.13 97.9028 2044.43 97.9028Z" fill="#027df7"/>
<path fill-rule="evenodd" clip-rule="evenodd" d="M2044.43 97.9028C1601.46 97.9028 1524.22 227.563 1192.19 227.563C860.167 227.563 475.176 0.364746 27.3733 0.364746C-420.429 0.364746 -558.755 153.847 -942.306 153.847C-1375.31 153.847 -1608.15 58.2882 -1608.15 87.2386C-1608.15 333.389 -1732.76 417.291 -1732.76 417.291L3443.8 417.291C3443.8 417.291 3593.16 227.563 3000.52 227.563C2653.76 227.563 2425.13 97.9028 2044.43 97.9028Z" fill="#0a66c2"/>
<defs>
<linearGradient id="paint0_linear" x1="-2508.21" y1="360.264" x2="-2508.21" y2="27.2392" gradientUnits="userSpaceOnUse">
<stop stop-color="#0a66c2"/>
<stop offset="1" stop-color="#027df7"/>
</linearGradient>
</defs>
</svg>
