<svg xmlns="http://www.w3.org/2000/svg" width="612.822" height="633" viewBox="0 0 612.822 633">
  <g id="infographics" transform="translate(77.7 -1312)">
    <rect id="Rectangle_10" data-name="Rectangle 10" width="232" height="633" transform="translate(64.56 1312)" fill="#fff"/>
    <g id="_54950_Converted_" data-name="54950 [Converted]" transform="translate(-77.7 1348.994)">
      <path id="Path_193" data-name="Path 193" d="M612.822,902.7h0Z" transform="translate(0 -317.842)" fill="#fff"/>
      <g id="Group_6" data-name="Group 6" transform="translate(131.445 289.237)">
        <g id="Group_5" data-name="Group 5">
          <g id="Group_1" data-name="Group 1" transform="translate(72.742)">
            <path id="Path_3" data-name="Path 3" d="M858.38,1133.822,773.216,1098,706.8,1142.836l35.273,14.849a17.44,17.44,0,0,1-2.369,1.56,20.861,20.861,0,0,1-4.362,1.271c-2.976.549-6.616.462-8.724,1.878-3.293,2.224-.693,6.269,5.807,9.187.2.087.375.173.578.26,6.933,2.918,15.282,3.409,18.691,1.127,2.773-1.849.635-4.824,2.282-6.991a17.393,17.393,0,0,1,2.745-2.08l35.216,14.82,27.474-18.547-.347-.173a36.412,36.412,0,0,0-3.611-1.329c-4.1-.9-9.649.2-13.173-1.3-4.333-1.936-3.467-6.327,1.878-9.909,5.4-3.64,13.318-5.113,17.68-3.265,2.716,1.213,2.6,3.091,3.64,4.651a8.207,8.207,0,0,0,2.427,2.34,12.54,12.54,0,0,0,1.242.607,14.936,14.936,0,0,0,1.7.664Z" transform="translate(-706.8 -1098)" fill="#9eabd3"/>
          </g>
          <path id="Path_4" data-name="Path 4" d="M588.929,1496.4c-2.138-1.445-5.865-1.358-8.869-1.907a19.331,19.331,0,0,1-4.42-1.3,16.2,16.2,0,0,1-2.427-1.56l35.851-15.08-27.936-18.836.347-.173c1.387-.607,3.351-1.271,3.669-1.358,4.16-.924,9.793.2,13.549-1.387,4.276-1.907,3.38-6.356-2.051-10.025-5.489-3.7-13.52-5.2-18.085-3.264-2.629,1.156-2.513,3.091-3.582,4.68a7.857,7.857,0,0,1-2.484,2.369,11.059,11.059,0,0,1-1.271.607c-.52.231-1.155.491-1.733.693L541.523,1431,455,1467.429l67.514,45.558,35.793-15.051a16.59,16.59,0,0,1,2.8,2.138c1.676,2.2-.491,5.2,2.311,7.107,3.467,2.34,11.96,1.82,19.009-1.127.2-.087.4-.173.578-.26C589.651,1502.789,592.28,1498.687,588.929,1496.4Z" transform="translate(-455 -1334.8)" fill="#9eabd3"/>
          <g id="Group_2" data-name="Group 2" transform="translate(200.894 40.271)">
            <path id="Path_5" data-name="Path 5" d="M1150.4,1273.8l35.794-15.08a16.573,16.573,0,0,1,2.8,2.138c1.676,2.2-.491,5.2,2.311,7.107,3.467,2.34,11.96,1.82,19.009-1.127.2-.087.376-.173.578-.26,6.615-2.947,9.273-7.078,5.893-9.331-2.138-1.444-5.864-1.358-8.869-1.906a19.335,19.335,0,0,1-4.42-1.3,16.2,16.2,0,0,1-2.427-1.56l35.851-15.08,67.513,45.558-86.551,36.429-27.936-18.835.347-.173c1.386-.607,3.38-1.271,3.7-1.358,4.16-.924,9.793.2,13.4-1.329,4.42-1.965,3.524-6.413-1.907-10.082-5.489-3.7-13.52-5.2-17.969-3.322-2.744,1.213-2.629,3.149-3.7,4.738a7.855,7.855,0,0,1-2.484,2.369,11.087,11.087,0,0,1-1.271.607c-.52.231-1.156.491-1.7.693Z" transform="translate(-1150.4 -1237.4)" fill="#9eabd3"/>
          </g>
          <g id="Group_4" data-name="Group 4" transform="translate(164.667 139.736)">
            <g id="Group_3" data-name="Group 3">
              <path id="Path_6" data-name="Path 6" d="M1176.552,1617.58l-35.216-14.82a17.4,17.4,0,0,0-2.744,2.08c-1.647,2.167.491,5.113-2.282,6.991-3.409,2.282-11.758,1.791-18.691-1.127-.2-.086-.375-.173-.578-.26-6.5-2.889-9.1-6.962-5.806-9.187,2.109-1.416,5.749-1.329,8.724-1.878a19.251,19.251,0,0,0,4.362-1.271,15.006,15.006,0,0,0,2.369-1.56l-35.273-14.849-27.5,18.575c-.578-.2-1.184-.433-1.7-.664-.635-.289-1.1-.52-1.242-.607a7.863,7.863,0,0,1-2.427-2.34c-1.04-1.56-.953-3.467-3.525-4.593-4.478-1.878-12.393-.433-17.8,3.207-5.344,3.611-6.211,7.973-2.022,9.851,3.7,1.56,9.215.462,13.318,1.358a30.058,30.058,0,0,1,3.611,1.329l.346.173L1025,1626.535l85.165,35.823Z" transform="translate(-1025 -1581.7)" fill="#9eabd3"/>
            </g>
          </g>
        </g>
      </g>
      <g id="Group_118" data-name="Group 118" transform="translate(77.682 32.558)">
        <g id="Group_36" data-name="Group 36" transform="translate(72.367)">
          <path id="Path_7" data-name="Path 7" d="M616.7,1145.338c0,11.96-21.782,21.638-48.649,21.638S519.4,1157.3,519.4,1145.338s21.782-21.638,48.649-21.638S616.7,1133.378,616.7,1145.338Z" transform="translate(-519.4 -859.597)" fill="#9eabd3"/>
          <g id="Group_35" data-name="Group 35" transform="translate(24.007)">
            <g id="Group_9" data-name="Group 9" transform="translate(35.887 267.194)">
              <path id="Path_8" data-name="Path 8" d="M731.891,1170.6l.809-.144.809-6.7L731.4,1161.3Z" transform="translate(-730.049 -1153.529)" fill="#561136"/>
              <g id="Group_8" data-name="Group 8">
                <path id="Path_9" data-name="Path 9" d="M727.667,1165.1l.953.52-.144-10.949-1.676-.376Z" transform="translate(-726.778 -1148.551)" fill="#152035"/>
                <g id="Group_7" data-name="Group 7">
                  <path id="Path_10" data-name="Path 10" d="M735.268,1137.144l1.791,5.864s2.427,5.662,4.42,7.887c0,0,3.611,4.94-3.149,4.622,0,0-7.193-.376-7.078-5,.087-3.958-3.553-8.9-3.553-8.9a4.072,4.072,0,0,1,.462-4.738l1.242-1.415,6.038-1.069Z" transform="translate(-727.013 -1134.4)" fill="#e59375"/>
                  <path id="Path_11" data-name="Path 11" d="M741.565,1155.376a9.075,9.075,0,0,1-7.829-2.369c-1.878-1.849-4.016-8.58-3.293-6.356.289.924-1.907-7.28-1.329-8.551l-1.242,1.416a4.178,4.178,0,0,0-.607,4.853s3.784,4.8,3.669,8.782c-.116,4.622,7.078,5,7.078,5,4.044.2,4.362-1.5,3.987-2.889A1.562,1.562,0,0,1,741.565,1155.376Z" transform="translate(-726.722 -1137.031)" fill="#152035"/>
                  <path id="Path_12" data-name="Path 12" d="M754.771,1184.433s1.011,1.907-2.2,1.907c0,0-12.076-.78-12.076-5.951V1176.2s.953,5.951,8.407,5.98c0,0,3.322,0,1.589-2.109Z" transform="translate(-736.52 -1164.125)" fill="#152035"/>
                </g>
              </g>
            </g>
            <g id="Group_34" data-name="Group 34">
              <circle id="Ellipse_1" data-name="Ellipse 1" cx="8.031" cy="8.031" r="8.031" transform="translate(18.633)" fill="#1a2652"/>
              <path id="Path_13" data-name="Path 13" d="M714.558,309.322h15.831c-.722-2.311-2.2-8.262.087-12.336L714.5,286.5S717.36,304.122,714.558,309.322Z" transform="translate(-682.144 -264.256)" fill="#f7a483"/>
              <path id="Path_14" data-name="Path 14" d="M716.349,299.456a6.942,6.942,0,0,0,4.969,4.391,17.079,17.079,0,0,0,8.031.607,12.466,12.466,0,0,1,1.127-7.367L714.5,286.6s.867,5.373,1.184,11.065C715.887,298.242,716.118,298.849,716.349,299.456Z" transform="translate(-682.144 -264.327)" fill="#e1876f"/>
              <path id="Path_15" data-name="Path 15" d="M722.618,250.736l.838-2.369,2.051-6.991a7.092,7.092,0,0,0,.029-3.727,11.163,11.163,0,0,1-.318-5.807c1.3-6.384-1.531-9.707-1.531-9.707-3.727-5.864-12.48-5.836-12.48-5.836-10.862.549-11.729,11.064-11.729,11.064-1.733,6.991,3.842,12.8,3.842,12.8.693.722.78,1.936,1.127,2.831a9.153,9.153,0,0,0,1.589,2.658,19.841,19.841,0,0,0,5.576,4.478,21.531,21.531,0,0,0,8.378,1.964C721.058,252.093,722.127,252.122,722.618,250.736Z" transform="translate(-671.224 -214.336)" fill="#f7a483"/>
              <g id="Group_12" data-name="Group 12" transform="translate(0 270.516)">
                <path id="Path_16" data-name="Path 16" d="M605.1,1175.784l.809.115,2.889-6.1-1.184-3Z" transform="translate(-604.349 -1160.762)" fill="#561136"/>
                <g id="Group_11" data-name="Group 11">
                  <path id="Path_17" data-name="Path 17" d="M602.5,1169.115l.751.838,3.38-10.429-1.5-.924Z" transform="translate(-602.5 -1154.931)" fill="#152035"/>
                  <g id="Group_10" data-name="Group 10" transform="translate(2.537)">
                    <path id="Path_18" data-name="Path 18" d="M620.516,1149.4c-.173,4.911-.52,10.4,1.445,15.022,0,0,1.82,5.835-4.449,3.351,0,0-6.7-2.658-5.113-7.02,1.358-3.727-.52-9.562-.52-9.562a4,4,0,0,1,1.964-4.333l1.647-.953h6.3Z" transform="translate(-611.642 -1145.9)" fill="#f7a483"/>
                    <path id="Path_19" data-name="Path 19" d="M621.4,1166.267a9.071,9.071,0,0,1-6.673-4.766c-1.185-2.34-1.04-9.418-1.1-7.078-.029.982.52-7.511,1.5-8.522l-1.647.953a4.142,4.142,0,0,0-2.109,4.42s2.022,5.749.664,9.475c-1.589,4.333,5.113,7.02,5.113,7.02,3.784,1.473,4.622-.029,4.709-1.473A1.288,1.288,0,0,1,621.4,1166.267Z" transform="translate(-611.28 -1145.9)" fill="#152035"/>
                    <path id="Path_20" data-name="Path 20" d="M624.7,1196.264s.347,2.138-2.716,1.1c0,0-11.18-4.593-9.5-9.5l1.329-3.958s-1.011,5.951,6.038,8.349c0,0,3.149,1.069,2.2-1.473Z" transform="translate(-612.011 -1172.922)" fill="#152035"/>
                  </g>
                </g>
              </g>
              <path id="Path_21" data-name="Path 21" d="M635.845,889.389c-8.031,14.82-9.447,20.858-10.862,32.1-.838,6.558-.549,34.147-1.416,38.278-.347,1.7,6.124.78,6.124.78,1.185-2.889,20.078-66.3,20.078-66.3s2.109-6.558.347-7.713C641.3,880.809,639.34,882.946,635.845,889.389Z" transform="translate(-617.471 -688.581)" fill="#f7a483"/>
              <path id="Path_22" data-name="Path 22" d="M625.845,961.84c1.184-2.889,19.876-67.629,19.876-67.629s2.109-6.558.347-7.713c-8.811-5.749-10.776-3.582-14.271,2.86-8.031,14.82-9.447,20.858-10.862,32.1-.838,6.558-2.2,33.193-3.033,37.325C617.9,958.778,622.7,964.5,625.845,961.84Z" transform="translate(-613.451 -688.55)" fill="#1f2732"/>
              <path id="Path_23" data-name="Path 23" d="M693.918,524.556s6.153,26.087,5.344,28.947c-2.4,8.2-24.5,19.731-44.662,2.918,0,0,4.622-19.3,14.184-35.62C668.784,520.8,672.309,524.44,693.918,524.556Z" transform="translate(-639.549 -430.869)" fill="#1f2732"/>
              <path id="Path_24" data-name="Path 24" d="M704.665,349.347s8.06,15.6,11.671,24.151c-1.5,10.024-6.962,24.9-9.158,28.051-4.8,6.876-26.751.751-26.751.751L674.1,381.182c18.46-6.644,8.753-26.087,8.753-26.087l2.889-1.82s2.947,9.562,14.964,9.216c0,0,3.958-2.571,1.04-13.491A17.731,17.731,0,0,1,704.665,349.347Z" transform="translate(-653.416 -308.7)" fill="#6652a2"/>
              <path id="Path_25" data-name="Path 25" d="M710.3,622.359s2.138,42.091,9.909,64.74c1.156,3.38,14.473-1.1,14.473-1.1s6.7-36.227,6.327-51.22c-.231-8.493-3.264-26.78-3.264-26.78S712.784,604.708,710.3,622.359Z" transform="translate(-679.158 -492.705)" fill="#e59375"/>
              <path id="Path_26" data-name="Path 26" d="M730.621,879.553l14.1-.953s-8.667,71.876-9.447,74.88c0,0-6.067,2.2-5.922.462.289-4.189-4.767-36.458-4.911-43.045C724.15,900.267,724.583,893.565,730.621,879.553Z" transform="translate(-689.165 -685.304)" fill="#e59375"/>
              <path id="Path_27" data-name="Path 27" d="M710.3,622.359s2.138,42.091,9.909,64.74c1.156,3.38,14.473-1.1,14.473-1.1s6.7-36.227,6.327-51.22c-.231-8.493-3.264-26.78-3.264-26.78S712.784,604.708,710.3,622.359Z" transform="translate(-679.158 -492.705)" fill="#171f29"/>
              <path id="Path_28" data-name="Path 28" d="M736.908,953.843c1.416-2.773,7.685-75.342,7.685-75.342l-14.1.953c-6.038,14.011-6.442,20.713-6.211,31.316.144,6.616,3.351,38.856,3.062,43.045C727.375,953.843,735.031,957.482,736.908,953.843Z" transform="translate(-689.068 -685.233)" fill="#171f29"/>
              <g id="Group_19" data-name="Group 19" transform="translate(50.268 42.438)">
                <g id="Group_13" data-name="Group 13">
                  <path id="Path_29" data-name="Path 29" d="M802.966,405.713,792.277,367c-3.842-10.371-9.591-10.6-9.591-10.6-11.007,1.676-3.958,20.973-3.958,20.973l13.578,32.153" transform="translate(-776.505 -356.4)" fill="#e59375"/>
                </g>
                <g id="Group_18" data-name="Group 18" transform="translate(14.63 44.836)">
                  <g id="Group_14" data-name="Group 14" transform="translate(36.449 23.082)">
                    <path id="Path_30" data-name="Path 30" d="M959.638,601.841c-4.622-3.438-4.94-4.362-5.633-5.749-3-5.98,4.68-4.68,6.529-3.929,1.069.4.751,3.062,3.727,6.818,0,0,4.969,3.958,6.327,3.929,0,0,1.358.4,1.213,1.416C971.829,604.3,967.669,605.972,959.638,601.841Z" transform="translate(-953.315 -591.498)" fill="#e59375"/>
                  </g>
                  <g id="Group_17" data-name="Group 17">
                    <g id="Group_15" data-name="Group 15" transform="translate(4.84)">
                      <path id="Path_31" data-name="Path 31" d="M843.9,511.6" transform="translate(-843.9 -511.6)" fill="#e59375"/>
                    </g>
                    <g id="Group_16" data-name="Group 16" transform="translate(0 0.2)">
                      <path id="Path_32" data-name="Path 32" d="M838.14,514.317l31.287,23.66c.867,4.3-1.127,4.622-1.127,4.622L843.08,531.13c-10.8-4.68-14.56-10.053-14.56-10.053s-4.42-4.131,2.6-8.291C831.12,512.786,834.327,510.966,838.14,514.317Z" transform="translate(-827.147 -512.292)" fill="#e59375"/>
                    </g>
                  </g>
                  <path id="Path_33" data-name="Path 33" d="M974.673,589.269s-1.358,2.658,2.2,2.484l3.784-2.08a1.374,1.374,0,0,0,.924-1.473s-.318-.636-1.5-.231Z" transform="translate(-931.873 -565.811)" fill="#e59375"/>
                </g>
              </g>
              <path id="Path_34" data-name="Path 34" d="M650.7,644.5s.173,42.12,5.72,65.4c.838,3.467,13.52,2.4,13.52,2.4s8.291-39.838,9.331-54.8c.607-8.465,2.282-23.285,2.282-23.285S651.856,631.265,650.7,644.5Z" transform="translate(-636.776 -511.318)" fill="#f7a483"/>
              <path id="Path_35" data-name="Path 35" d="M662.115,359.582c-6.471,4.738-3.178,11.844-3.178,11.844l12.22,29.7s19.818,6.731,24.642-.144c2.2-3.149,4.218-11.469,6.876-23.458,1.82-8.147,1.936-22.418-2.658-26.636-2.658-2.427-11.209-2.4-11.3-2.687l-13.9,4.478Z" transform="translate(-642.037 -308.131)" fill="#f7a483"/>
              <path id="Path_36" data-name="Path 36" d="M687.578,518.529c1.185-.2,7.511,2.282,7.511,2.282s4.564,19.471,4.824,22.418-20.078,18.287-42.813,9.562c0,0,11.469-27.069,13.144-32.731C672.18,513.561,687.578,518.529,687.578,518.529Z" transform="translate(-641.327 -427.962)" fill="#f7a483"/>
              <path id="Path_37" data-name="Path 37" d="M791.349,391.9s6.7,7.887,7.28,13.78c.318,3.264-3.813,8.753-5.865,10.747C791.291,417.842,782.625,397.36,791.349,391.9Z" transform="translate(-734.062 -339.206)" fill="#6652a2"/>
              <path id="Path_38" data-name="Path 38" d="M658.266,615.522s-8,1.791-7.28,16.467c.693,14.358,26.838,17.333,30.189,2.889C684.787,619.306,672.538,610.177,658.266,615.522Z" transform="translate(-636.947 -497.134)" fill="#1f2732"/>
              <path id="Path_39" data-name="Path 39" d="M693.925,241.626c-.058-4.969.058-4.651.058-4.651.116-1.444,2.947,1.676,2.889-.2-.26-8.638,2.86-12.74,4.1-13.4a15.253,15.253,0,0,1,9.62-1.82c4.362.78,4.189,6.587,4.189,6.587,3.727-21.262-20.02-14.473-20.02-14.473a13.158,13.158,0,0,0-10.371,13.924c-1.416,11.7,9.649,18.46,9.649,18.46Z" transform="translate(-660.645 -211.726)" fill="#2b3b6f"/>
              <g id="Group_28" data-name="Group 28" transform="translate(29.437 21.782)">
                <g id="Group_24" data-name="Group 24">
                  <g id="Group_23" data-name="Group 23">
                    <g id="Group_22" data-name="Group 22">
                      <g id="Group_21" data-name="Group 21">
                        <g id="Group_20" data-name="Group 20">
                          <path id="Path_40" data-name="Path 40" d="M709.021,291.341a2.448,2.448,0,0,1-1.5.462,3.433,3.433,0,0,1-3.12-3.5,3.143,3.143,0,0,1,2.976-3.409,2.873,2.873,0,0,1,2.08.953,4.19,4.19,0,0,1,.636,3.467A3.365,3.365,0,0,1,709.021,291.341Z" transform="translate(-704.398 -284.899)" fill="#f8a07d"/>
                        </g>
                      </g>
                    </g>
                  </g>
                </g>
                <g id="Group_27" data-name="Group 27" transform="translate(1.59 1.009)">
                  <g id="Group_25" data-name="Group 25">
                    <path id="Path_41" data-name="Path 41" d="M711.953,289.116c-.087-1.011-2.138-.058-1.82.52a2.977,2.977,0,0,0,.809.78,1.55,1.55,0,0,1,.636,1.1c0,.058.029.231-.029.26-.26.173-1.127-.809-1.3-1.011a1.623,1.623,0,0,1-.231-1.618,1.016,1.016,0,0,1,1.127-.751c.462.029.924.058.9.636-.058.058-.087.145-.087.087Z" transform="translate(-709.903 -288.392)" fill="#e98b6f"/>
                  </g>
                  <g id="Group_26" data-name="Group 26" transform="translate(0.228 1.673)">
                    <path id="Path_42" data-name="Path 42" d="M711.85,294.273c.2-.2.4-.029.636.116a.971.971,0,0,1,.375.578,2.274,2.274,0,0,1-.26,1.676,1.248,1.248,0,0,1-1.1.578c-.607-.029-.78-.549-.809-1.069,0-.144-.029-.462.116-.549s.26.144.347.231a1.156,1.156,0,0,0,.52.2,1.057,1.057,0,0,0,.9-.4c.029-.058.087-.087.087-.144,0,.347-.029.4-.058.231a.583.583,0,0,0-.116-.231,5.494,5.494,0,0,0-.549-.607c-.029-.116-.173-.491-.087-.607Z" transform="translate(-710.692 -294.181)" fill="#e98b6f"/>
                  </g>
                </g>
              </g>
              <g id="Group_30" data-name="Group 30" transform="translate(40.069 16.195)">
                <path id="Path_43" data-name="Path 43" d="M750.055,279.1c.058.607-.231,1.127-.636,1.156s-.78-.4-.838-1.011.231-1.127.635-1.156C749.622,278.03,750,278.492,750.055,279.1Z" transform="translate(-746.444 -274.465)" fill="#3c2415"/>
                <path id="Path_44" data-name="Path 44" d="M778.969,275.066c.029.607-.289,1.1-.693,1.127s-.751-.462-.78-1.069.289-1.1.693-1.127S778.94,274.459,778.969,275.066Z" transform="translate(-767.009 -271.559)" fill="#3c2415"/>
                <path id="Path_45" data-name="Path 45" d="M741.2,271.667c1.56-1.647,5.258-1.531,5.258-1.531s.26,0,.173-.751c0,0-.029-.664-.549-.607C746.082,268.779,741.4,268.461,741.2,271.667Z" transform="translate(-741.2 -267.842)" fill="#2b3b6f"/>
                <path id="Path_46" data-name="Path 46" d="M777.481,266.236c-1.647-1.329-4.651-.289-4.651-.289-.52.087-.376.722-.376.722.144.751.376.693.376.693a10.014,10.014,0,0,1,4.449-.318C777.337,266.756,777.424,266.5,777.481,266.236Z" transform="translate(-763.412 -265.56)" fill="#2b3b6f"/>
                <g id="Group_29" data-name="Group 29" transform="translate(4.6 12.256)">
                  <path id="Path_47" data-name="Path 47" d="M763.413,307.989l-5.951,1.1c-.318.058-.433.231-.26.4a4.719,4.719,0,0,0,3.64,1.358c1.936-.347,2.889-2.571,2.889-2.571C763.817,308.076,763.673,307.96,763.413,307.989Z" transform="translate(-757.121 -307.985)" fill="#fff"/>
                </g>
                <path id="Path_48" data-name="Path 48" d="M764.1,290.833c3.12-.231,3.293-1.04,3.293-1.04l-1.647-3.293S766.122,289.793,764.1,290.833Z" transform="translate(-757.484 -280.451)" fill="#e98b6f"/>
              </g>
              <path id="Path_49" data-name="Path 49" d="M650.7,644.5s.173,42.12,5.72,65.4c.838,3.467,13.52,2.4,13.52,2.4s8.291-39.838,9.331-54.8c.607-8.465,2.282-23.285,2.282-23.285S651.856,631.265,650.7,644.5Z" transform="translate(-636.776 -511.318)" fill="#1f2732"/>
              <path id="Path_50" data-name="Path 50" d="M693.918,524.556s6.153,26.087,5.344,28.947c-2.4,8.2-24.5,19.731-44.662,2.918,0,0,4.622-19.3,14.184-35.62C668.784,520.8,672.309,524.44,693.918,524.556Z" transform="translate(-639.549 -430.869)" fill="#1f2732"/>
              <path id="Path_51" data-name="Path 51" d="M681.457,402.371s22.562,6.962,27.358.087c2.2-3.149,7.02-18.836,8.522-28.86-3.611-8.551-11.671-24.151-11.671-24.151a17.2,17.2,0,0,0-2.889-.347c2.918,10.92-1.04,13.491-1.04,13.491-12.018.347-14.964-9.216-14.964-9.216l-2.889,1.82s8.956,18.6-8.32,27.1C675.535,382.265,675.13,402.227,681.457,402.371Z" transform="translate(-654.446 -308.771)" fill="#6652a2"/>
              <path id="Path_52" data-name="Path 52" d="M715.48,305.84a1.04,1.04,0,1,1-1.04-1.04A1.036,1.036,0,0,1,715.48,305.84Z" transform="translate(-681.362 -277.269)" fill="#fff"/>
              <g id="Group_33" data-name="Group 33" transform="translate(10.529 50.996)">
                <path id="Path_53" data-name="Path 53" d="M666.068,389.195a9.271,9.271,0,0,1-.4,13.116c-3.727,3.524-15.456,10.2-15.571,5.084-.2-10.082.173-15.542,3.9-19.067C657.748,384.833,662.573,385.468,666.068,389.195Z" transform="translate(-646.842 -386.024)" fill="#f7a483"/>
                <path id="Path_54" data-name="Path 54" d="M658.607,414.98l-8.118-4.68-8.147,5.113s-4.767,30.391-3,37.353c1.878,7.424,5.287,1.964,6.875-.087C646.213,452.651,659.5,420.873,658.607,414.98Z" transform="translate(-638.947 -403.287)" fill="#f7a483"/>
                <path id="Path_55" data-name="Path 55" d="M644.5,543.135s14.589,10.4,27.531,16.091c0,0,4.276-1.791,2.138-3.784-3.64-3.351-19.5-18.547-23.169-21.927C644.5,531.291,644.5,543.135,644.5,543.135Z" transform="translate(-642.896 -490.709)" fill="#f7a483"/>
                <g id="Group_32" data-name="Group 32" transform="translate(28.434 64.59)">
                  <g id="Group_31" data-name="Group 31">
                    <path id="Path_56" data-name="Path 56" d="M745.439,619.311c-5.287-2.282-5.807-3.12-6.789-4.3-4.3-5.142,3.467-5.6,5.46-5.344,1.156.173,1.445,2.831,5.2,5.778,0,0,5.72,2.716,7.049,2.369,0,0,1.416.087,1.5,1.1C757.861,618.935,754.221,621.535,745.439,619.311Z" transform="translate(-737.371 -609.606)" fill="#f7a483"/>
                  </g>
                  <path id="Path_57" data-name="Path 57" d="M758.089,609.7s-2.253,1.936,1.127,3.12l4.276-.52s1.213.058,1.387-1.011c0,0-.058-.722-1.3-.78Z" transform="translate(-751.58 -609.673)" fill="#f7a483"/>
                </g>
              </g>
            </g>
          </g>
        </g>
        <g id="Group_38" data-name="Group 38" transform="translate(119.514 87.909)">
          <path id="Path_58" data-name="Path 58" d="M1006.013,667.184a.427.427,0,0,0-.2-.029,1.027,1.027,0,0,0-.289-.058c-.058,0-.144-.029-.2-.029s-.145-.029-.2-.029l-.144,16.582L977.5,702.169l.144-19.818,22.765-15.369c-.347.029-.664.087-1.011.144-.087,0-.144.029-.231.029a1.688,1.688,0,0,1-.376.058c-.087.029-.173.029-.26.058-.116.029-.26.058-.376.087-.087.029-.144.029-.231.058-.2.058-.4.087-.607.144-.058,0-.115.029-.173.029-.26.058-.491.144-.751.2-.058,0-.087.029-.145.029-.347.087-.664.2-1.011.318h-.029c-.347.116-.665.231-1.011.376-.029,0-.058.029-.087.029-.376.144-.751.318-1.127.462-.029,0-.029,0-.058.029-.376.173-.751.347-1.1.549a.028.028,0,0,0-.029.029c-.376.2-.722.4-1.069.607H990.7c-.347.2-.722.433-1.04.664-3.033,2.051-4.622,4.333-4.651,6.3.058-6.587.116-13.2.173-19.789.029-1.964,1.618-4.247,4.651-6.3.347-.231.693-.462,1.04-.664h.029c.347-.2.722-.4,1.069-.607a.028.028,0,0,0,.029-.029c.376-.2.722-.376,1.1-.549.029,0,.029-.029.058-.029.376-.173.751-.318,1.127-.462h.029c.029,0,.029-.029.058-.029.318-.116.664-.26.982-.376.029,0,.029,0,.058-.029.347-.116.664-.231,1.011-.318.029,0,.058-.029.087-.029s.029,0,.058-.029c.231-.058.491-.144.722-.2a.367.367,0,0,1,.173-.029c.2-.058.4-.087.578-.144.029,0,.087-.029.116-.029.058,0,.087-.029.144-.029l.347-.087c.086-.029.173-.029.289-.058a1.464,1.464,0,0,1,.376-.058c.058,0,.116-.029.2-.029h.058c.347-.058.664-.116,1.011-.144h.145l.867-.087h.173a7.572,7.572,0,0,1,.809-.029h.925c.231,0,.491.029.722.029h.087c.26.029.491.058.722.087h.144a1.028,1.028,0,0,1,.289.058c.087,0,.144.029.231.029.087.029.173.029.26.058.058,0,.116.029.173.029h.029l.607.173c.058,0,.087.029.144.058a3.453,3.453,0,0,1,.578.231c.144.058.289.144.433.2a.219.219,0,0,0,.116.058c.058.029.087.058.144.087.029.029.087.058.116.087.058.029.087.058.144.087.087.058.144.116.2.144.029.029.087.058.115.087l.029.029c.087.058.144.144.231.2l.029.029.173.173h0l.058.058.087.087c.058.058.087.115.145.173.029.029.058.058.058.087a.1.1,0,0,1,.029.058c.029.029.029.058.058.087.029.058.087.115.116.173s.058.087.087.144a1.654,1.654,0,0,0,.116.2c0,.029.029.029.029.058a.1.1,0,0,0,.029.058l.173.347c0,.029.029.029.029.058.058.144.145.318.2.462.029.087.087.2.116.289.029.058.029.087.058.144.058.144.116.26.173.376a1.661,1.661,0,0,0,.116.2c.029.029.029.058.058.116.058.087.116.2.173.289a.766.766,0,0,0,.145.173,1.579,1.579,0,0,0,.2.26c.029.029.058.087.087.116.087.116.2.231.289.347l.029.029.347.347a.4.4,0,0,0,.116.087,1.848,1.848,0,0,0,.26.231c.058.029.087.087.144.116.087.087.2.144.289.231.058.029.087.058.145.087a2.479,2.479,0,0,0,.462.289.028.028,0,0,1,.029.029.1.1,0,0,0,.058.029h.029c.029,0,.029.029.058.029a.1.1,0,0,0,.058.029c.029,0,.058.029.087.029s.029.029.058.029c.029.029.058.029.087.058.029,0,.058.029.087.029.029.029.058.029.087.058s.087.029.115.058a.1.1,0,0,1,.058.029c.058.029.087.029.145.058.029,0,.058.029.087.029.087.029.144.058.231.087a14.958,14.958,0,0,0,1.7.664l27.5-18.576-.173,19.818-27.5,18.576c-.578-.2-1.184-.433-1.7-.664a.864.864,0,0,1-.231-.116.028.028,0,0,1-.029-.029l-.173-.087c-.029,0-.029-.029-.058-.029-.058-.029-.087-.029-.116-.058-.029,0-.058-.029-.087-.029-.029-.029-.058-.029-.087-.058-.029,0-.029-.029-.058-.029-.029-.029-.058-.029-.087-.058-.029,0-.029-.029-.058-.029s-.058-.029-.087-.029a.028.028,0,0,1-.029-.029.1.1,0,0,1-.058-.029h-.029a.028.028,0,0,1-.029-.029h0c-.145-.087-.289-.2-.433-.289-.058-.029-.087-.058-.145-.087a2.031,2.031,0,0,1-.289-.231c-.029-.029-.058-.029-.087-.058l-.058-.058c-.087-.087-.173-.144-.26-.231-.029-.029-.087-.058-.116-.116l-.347-.347h0a.028.028,0,0,0-.029-.029,3.062,3.062,0,0,1-.289-.347c-.029-.029-.058-.087-.087-.116-.058-.087-.144-.173-.2-.26l-.058-.058c-.029-.029-.058-.087-.087-.115-.058-.087-.115-.2-.173-.289-.029-.058-.058-.087-.087-.144s-.058-.087-.087-.144h0a2.654,2.654,0,0,0-.2-.4c-.029-.029-.029-.087-.058-.116a1.766,1.766,0,0,1-.144-.347c-.058-.144-.116-.26-.173-.4,0-.029-.029-.058-.029-.087-.058-.116-.087-.2-.145-.318-.029-.029-.029-.087-.058-.116a.61.61,0,0,0-.116-.173c-.029-.058-.058-.087-.087-.144s-.087-.116-.116-.173-.058-.087-.087-.144c-.029-.029-.058-.058-.058-.087-.058-.058-.087-.116-.145-.173l-.087-.087c-.058-.087-.144-.144-.2-.231l-.029-.029a1.877,1.877,0,0,0-.26-.231c-.029-.029-.087-.058-.116-.087a.878.878,0,0,0-.2-.144c-.058-.029-.087-.058-.145-.087a1.172,1.172,0,0,0-.26-.144.219.219,0,0,0-.116-.058,2.918,2.918,0,0,0-.433-.2c-.2-.087-.376-.144-.578-.231-.058-.029-.087-.029-.144-.058A2.308,2.308,0,0,1,1006.013,667.184Z" transform="translate(-892.306 -601.693)" fill="#0093c6"/>
          <path id="Path_59" data-name="Path 59" d="M682.6,688.718l.173-19.818,35.273,14.849-.144,16.5h.029c.087,0,.144.029.231.029.289.029.549.058.838.087h.087a4.251,4.251,0,0,0,.607.029h.231a2.644,2.644,0,0,1,.462.029h1.358c.289,0,.578-.029.838-.029h.058c.26-.029.52-.029.751-.058a.366.366,0,0,0,.173-.029l.607-.087h.087c.231-.029.433-.087.636-.115.058,0,.116-.029.173-.029.2-.058.375-.087.578-.144a.106.106,0,0,0,.087-.029c.029,0,.087-.029.115-.029.087-.029.2-.058.289-.087.058-.029.087-.029.144-.058l.26-.087c.058-.029.087-.029.145-.058a.867.867,0,0,0,.231-.116c.029-.029.087-.029.116-.058.086-.029.144-.087.231-.116.029-.029.058-.029.116-.058a1.938,1.938,0,0,0,.318-.2,3.549,3.549,0,0,0,1.56-3.236v-.953a4.453,4.453,0,0,1,.722-2.8,17.393,17.393,0,0,1,2.745-2.08l35.216,14.791-.173,19.818-35.216-14.82a14.893,14.893,0,0,0-2.745,2.08,4.094,4.094,0,0,0-.722,2.484v.953a3.655,3.655,0,0,1-1.56,3.524,3.031,3.031,0,0,1-.318.2c-.029.029-.087.029-.116.058-.087.029-.144.087-.231.115-.029.029-.087.029-.144.058a.861.861,0,0,0-.231.116c-.058.029-.087.029-.144.058-.029,0-.058.029-.087.029-.058.029-.116.029-.173.058s-.087.029-.144.058c-.087.029-.2.058-.289.087-.029,0-.087.029-.116.029h-.087a3.388,3.388,0,0,1-.578.144.106.106,0,0,0-.087.029h-.058a4.905,4.905,0,0,1-.636.116h-.058c-.2.029-.433.058-.636.087h-.173a6.561,6.561,0,0,1-.751.058h-.087a8.142,8.142,0,0,1-.838.029h-1.329a2.65,2.65,0,0,1-.462-.029h-.231a4.72,4.72,0,0,1-.636-.058h-.029c-.289-.029-.549-.058-.838-.087-.087,0-.144-.029-.231-.029-.26-.029-.491-.058-.751-.087h-.115c-.231-.029-.462-.087-.693-.116-.029,0-.087-.029-.116-.029a4.474,4.474,0,0,1-.607-.116c-.087-.029-.173-.029-.26-.058-.144-.029-.289-.058-.462-.087a1.026,1.026,0,0,0-.289-.058l-.433-.087c-.029,0-.087-.029-.116-.029s-.058-.029-.087-.029c-.376-.087-.751-.2-1.156-.289-.058,0-.087-.029-.144-.029-.376-.115-.78-.231-1.156-.347-.029,0-.087-.029-.116-.029-.4-.144-.78-.26-1.184-.4a.1.1,0,0,1-.058-.029c-.4-.144-.809-.318-1.213-.491-.2-.087-.376-.173-.578-.26-.26-.116-.52-.231-.78-.376-.087-.029-.173-.087-.26-.116-.173-.087-.318-.173-.491-.26a2.687,2.687,0,0,0-.289-.144,3.158,3.158,0,0,0-.433-.231,1.173,1.173,0,0,0-.26-.144l-.173-.087-.26-.173c-.087-.058-.144-.087-.231-.144-.144-.087-.318-.2-.462-.289-.058-.029-.087-.058-.144-.087-.2-.144-.376-.26-.549-.4a.509.509,0,0,1-.144-.115c-.115-.087-.2-.173-.318-.26l-.058-.058a3.661,3.661,0,0,0-.375-.318c-.058-.058-.116-.087-.173-.144-.173-.144-.318-.318-.462-.462h0c-.116-.144-.26-.289-.347-.4-.029-.058-.058-.087-.087-.144-.058-.087-.116-.144-.173-.231,0-.029-.029-.029-.029-.058-.029-.029-.058-.087-.087-.116-.058-.087-.116-.2-.173-.289a.219.219,0,0,1-.058-.116.1.1,0,0,0-.029-.058c-.058-.115-.087-.2-.144-.318,0-.029,0-.029-.029-.058-.029-.058-.058-.144-.087-.2a.261.261,0,0,1-.029-.144.1.1,0,0,0-.029-.058,1.276,1.276,0,0,1-.058-.289v-.116a1.414,1.414,0,0,1-.029-.347v-.029c.029-4.709.087-9.389.116-14.1Z" transform="translate(-682.6 -624.093)" fill="#3dafe4"/>
          <g id="Group_37" data-name="Group 37" transform="translate(0.173)">
            <path id="Path_60" data-name="Path 60" d="M834.78,549.622,749.616,513.8,683.2,558.636l35.273,14.849a17.463,17.463,0,0,1-2.369,1.56,20.86,20.86,0,0,1-4.362,1.271c-2.976.549-6.616.462-8.724,1.878-3.293,2.224-.693,6.269,5.807,9.187.2.087.376.173.578.26,6.933,2.918,15.282,3.409,18.691,1.127,2.773-1.849.636-4.825,2.282-6.991a17.4,17.4,0,0,1,2.745-2.08l35.245,14.762,27.474-18.547-.347-.173a36.381,36.381,0,0,0-3.611-1.329c-4.1-.9-9.649.2-13.173-1.3-4.333-1.936-3.467-6.327,1.878-9.909,5.4-3.64,13.318-5.113,17.68-3.264,2.716,1.213,2.6,3.091,3.64,4.651a8.207,8.207,0,0,0,2.427,2.34,12.534,12.534,0,0,0,1.242.607,14.917,14.917,0,0,0,1.7.664Z" transform="translate(-683.2 -513.8)" fill="#80bbe6"/>
          </g>
        </g>
        <g id="Group_40" data-name="Group 40" transform="translate(46.973 184.138)">
          <g id="Group_39" data-name="Group 39" transform="translate(126.158 20.222)">
            <path id="Path_61" data-name="Path 61" d="M903.882,916.9v.4a.261.261,0,0,1-.029.144c0,.058-.029.087-.029.145,0,.029-.029.087-.029.116,0,.058-.029.087-.029.144,0,.029-.029.058-.029.116,0,.029-.029.029-.029.058-.058.144-.116.26-.173.4h0a2.621,2.621,0,0,1-.231.376c0,.029-.029.029-.029.058l-.26.347-.087.087-.087.087-.115.116a114,114,0,0,1-.231.173,1.219,1.219,0,0,1-.2.145.4.4,0,0,1-.116.087,1.6,1.6,0,0,1-.231.145c-.029.029-.058.029-.087.058-.058.029-.145.087-.2.116a.219.219,0,0,1-.116.058l-.347.173a8.106,8.106,0,0,1-1.416.462c-.4.087-.809.173-1.213.231s-.809.116-1.213.145c-.578.058-1.184.087-1.762.087-1.3.029-2.658.029-3.958.058-.578.029-1.184.058-1.733.087l.173,20.136q.867-.087,1.733-.087c1.3-.029,2.658-.029,3.958-.058l1.762-.087c.4-.029.838-.087,1.213-.144.433-.058.838-.144,1.213-.231a7.381,7.381,0,0,0,1.416-.462l.347-.173c.029-.029.058-.029.087-.058.087-.029.144-.087.231-.116h.029c.029,0,.029-.029.058-.029.087-.058.144-.087.231-.144a.4.4,0,0,1,.116-.087c.058-.058.144-.087.2-.144l.058-.058c.029,0,.029-.029.058-.029.029-.029.087-.058.116-.087s.087-.058.116-.116l.087-.087.058-.058.029-.029a2.72,2.72,0,0,0,.26-.347l.029-.029a.028.028,0,0,1,.029-.029,4.264,4.264,0,0,0,.231-.376h0c.058-.144.116-.26.173-.4v-.058c0-.029.029-.087.029-.116,0-.058.029-.087.029-.145,0-.029.029-.087.029-.116s.029-.058.029-.087v-.029c0-.058.029-.116.029-.173v-.4Z" transform="translate(-883.631 -916.9)" fill="#7c294b"/>
            <path id="Path_62" data-name="Path 62" d="M872.216,933.389h0a31.193,31.193,0,0,0-3.669,1.358c-.115.058-.26.116-.347.173l.173,20.136.347-.173a33.661,33.661,0,0,1,3.64-1.329h.029c.318-.058.636-.116.982-.173.4-.058.809-.087,1.213-.144l-.173-20.136c-.4.029-.809.087-1.213.144A3.669,3.669,0,0,0,872.216,933.389Z" transform="translate(-868.2 -928.42)" fill="#7c294b"/>
          </g>
          <path id="Path_63" data-name="Path 63" d="M752,1024.636l-.173-20.136-35.851,15.08.144,16.756c-4.16.491-7.916.116-9.909-1.242a3.622,3.622,0,0,1-1.589-3.265v-.982a4.536,4.536,0,0,0-.722-2.831,18.33,18.33,0,0,0-2.8-2.138l-35.793,15.08.173,20.135,35.794-15.08a16.611,16.611,0,0,1,2.8,2.138,4.235,4.235,0,0,1,.722,2.513v1.011a3.713,3.713,0,0,0,1.589,3.582c3.467,2.34,11.96,1.82,19.009-1.127.2-.087.4-.173.578-.26,4.68-2.08,7.367-4.767,7.367-6.933-.029-4.767-.087-9.562-.115-14.329Z" transform="translate(-597.758 -958.971)" fill="#a1426f"/>
          <path id="Path_64" data-name="Path 64" d="M885.764,929.3l.173,20.136c-3.755,1.589-9.389.462-13.549,1.387a33.687,33.687,0,0,0-3.669,1.358c-.116.058-.26.116-.347.173l-.173-20.136.347-.173c1.387-.607,3.351-1.271,3.669-1.358C876.376,929.762,882.009,930.86,885.764,929.3Z" transform="translate(-742.042 -905.495)" fill="#7c294b"/>
          <path id="Path_65" data-name="Path 65" d="M499.014,1018.458,431.5,972.9l.173,20.136,67.514,45.558Z" transform="translate(-431.5 -936.5)" fill="#7c294b"/>
          <path id="Path_66" data-name="Path 66" d="M565.429,912.3c-2.138-1.444-5.865-1.358-8.869-1.907a19.337,19.337,0,0,1-4.42-1.3,16.2,16.2,0,0,1-2.427-1.56l35.851-15.08-27.936-18.836.347-.173c1.387-.607,3.351-1.271,3.669-1.358,4.16-.924,9.793.2,13.549-1.387,4.276-1.907,3.38-6.356-2.051-10.024-5.489-3.7-13.52-5.2-18.085-3.264-2.629,1.156-2.513,3.091-3.582,4.68a7.859,7.859,0,0,1-2.484,2.369,11.115,11.115,0,0,1-1.271.607c-.52.231-1.156.491-1.733.693L518.022,846.9,431.5,883.3l67.514,45.558,35.793-15.08a16.594,16.594,0,0,1,2.8,2.138c1.675,2.2-.491,5.2,2.311,7.107,3.467,2.34,11.96,1.82,19.009-1.127.2-.087.4-.173.578-.26C566.123,918.689,568.78,914.587,565.429,912.3Z" transform="translate(-431.5 -846.9)" fill="#cc4e7e"/>
        </g>
        <g id="Group_62" data-name="Group 62" transform="translate(301.668 19.385)">
          <path id="Path_67" data-name="Path 67" d="M1515.7,1287.138c0,11.96,21.782,21.638,48.649,21.638S1613,1299.1,1613,1287.138s-21.782-21.638-48.649-21.638S1515.7,1275.178,1515.7,1287.138Z" transform="translate(-1457.18 -979.817)" fill="#9eabd3"/>
          <g id="Group_61" data-name="Group 61">
            <g id="Group_42" data-name="Group 42" transform="translate(73.693 293.772)">
              <g id="Group_41" data-name="Group 41" transform="translate(0.002)">
                <path id="Path_68" data-name="Path 68" d="M1585.322,1302.2c-3.438,3.467-9.1,5.315-9.1,5.315a7.811,7.811,0,0,1-7.6-1.964,1.46,1.46,0,0,1,.231-2.224c10.053-7.656,13.087-9.822,13.087-9.822h9.245a20.563,20.563,0,0,1,.2,5.229,7.976,7.976,0,0,1-5.084,3.062c-.2.029-.549-.26-.722-.173Z" transform="translate(-1568.228 -1293.5)" fill="#17181c"/>
              </g>
              <path id="Path_69" data-name="Path 69" d="M1568.793,1311.671a1.8,1.8,0,0,0,.2.635c.78,1.676,2.946,2.369,4.68,2.34,2.08-.029,3.958-1.04,5.749-1.964a25.194,25.194,0,0,0,4.767-3.235,13.6,13.6,0,0,1,3.611-1.791,19.19,19.19,0,0,0,3.64-2.456c0,.982-.058,1.82-.058,1.82a7.977,7.977,0,0,1-5.084,3.062c-.2.029-.549-.26-.722-.173l-.26.578c-3.438,3.467-9.1,5.315-9.1,5.315a7.811,7.811,0,0,1-7.6-1.965A1.443,1.443,0,0,1,1568.793,1311.671Z" transform="translate(-1568.222 -1301.82)"/>
            </g>
            <g id="Group_43" data-name="Group 43" transform="translate(82 142.871)">
              <path id="Path_70" data-name="Path 70" d="M1612.64,847.085c-10.284,11.353-14.358-.664-14.358-.664l-1.271-69.738c-.144,1.04-.462-7.02,12.509-5.287,12.942,1.733,16.207,6.789,16.207,6.789s-7.107,48.187-13.087,68.9" transform="translate(-1596.974 -771.151)" fill="#e59375"/>
              <path id="Path_71" data-name="Path 71" d="M1601.3,1014.751s5.229,73.465,5.633,76.036c0,0,6.327,1.416,6.356-.058.087-3.525,7.309-46.511,7.4-52.029.231-14.011-3.38-16.64-6.962-26.087C1613.722,1012.614,1601.271,1003.4,1601.3,1014.751Z" transform="translate(-1600.05 -940.348)" fill="#e59375"/>
            </g>
            <g id="Group_45" data-name="Group 45" transform="translate(80.192 142.9)">
              <g id="Group_44" data-name="Group 44">
                <path id="Path_72" data-name="Path 72" d="M1611.28,849.814c5.98-20.713,10-71.529,10-71.529s-3.264-5.055-16.207-6.789c-12.971-1.733-12.625,6.327-12.509,5.287,0,0-3.929,37.816-.318,72.194C1592.242,848.948,1603.307,854.841,1611.28,849.814Z" transform="translate(-1590.716 -771.251)" fill="#104473"/>
              </g>
            </g>
            <path id="Path_73" data-name="Path 73" d="M1635.32,649.918c1.82,6.529,9.389,31.431,9.389,31.431-27.1,32.413-47.493,4.045-47.753,1.1-.318-3.524,3.64-17.044,4.333-31.633C1601.289,650.843,1608.684,639.461,1635.32,649.918Z" transform="translate(-1514.948 -538.927)" fill="#f7a483"/>
            <path id="Path_74" data-name="Path 74" d="M1596.675,736.647c-1.271-8.724,1.387-17.536,2.745-26.347h39.694c2.542,8.464,5.171,17.16,5.171,17.16s1.7,20.02-15.282,22.418C1629,749.849,1599.391,754.991,1596.675,736.647Z" transform="translate(-1514.523 -585.008)" fill="#104473"/>
            <g id="Group_46" data-name="Group 46" transform="translate(99.254 144.814)">
              <path id="Path_75" data-name="Path 75" d="M1684.751,853.4c-8.493,12.74-14.3,1.473-14.3,1.473L1656.7,786.926c.029,1.04.4-8.84,13.491-9.042,13.058-.2,17.045,4.3,17.045,4.3s.347,49.833-2.484,71.211" transform="translate(-1656.7 -777.877)" fill="#f7a483"/>
              <path id="Path_76" data-name="Path 76" d="M1703.238,1026s13.636,77.394,14.445,79.878c0,0,6.471.433,6.3-1.011-.462-3.5.722-52.289,0-57.778-1.849-13.867-3.756-16.265-8.724-25.047C1715.227,1022.073,1701.534,1014.793,1703.238,1026Z" transform="translate(-1689.689 -949.873)" fill="#f7a483"/>
            </g>
            <g id="Group_47" data-name="Group 47" transform="translate(122.769 297.756)">
              <path id="Path_77" data-name="Path 77" d="M1741.942,1308.881l-3.843,11.7s.78,10.458,9.187,3.987l2.513-2.427a2.674,2.674,0,0,0,.9-2.571l-.751-4.478-.9-6.211C1749.078,1308.881,1743.82,1305.3,1741.942,1308.881Z" transform="translate(-1738.1 -1307.289)" fill="#17181c"/>
              <path id="Path_78" data-name="Path 78" d="M1747.458,1352.656l2.513-2.427a2.7,2.7,0,0,0,.867-1.329l.058.26a2.674,2.674,0,0,1-.9,2.571l-2.513,2.427c-8.407,6.471-9.187-3.987-9.187-3.987l.145-.462C1738.878,1352.164,1740.727,1357.827,1747.458,1352.656Z" transform="translate(-1738.242 -1336.879)"/>
            </g>
            <g id="Group_49" data-name="Group 49" transform="translate(97.52 137.592)">
              <g id="Group_48" data-name="Group 48">
                <path id="Path_79" data-name="Path 79" d="M1760.1,1040.2" transform="translate(-1728.495 -957.196)" fill="#152035"/>
                <path id="Path_80" data-name="Path 80" d="M1664.509,838.975c-4.767-14.04-13.809-72.049-13.809-72.049.029,1.04,2.716-13.867,15.8-14.04,13.058-.2,16.438,4.853,16.438,4.853s4.1,56.8,1.242,78.174C1684.211,835.884,1675,846.515,1664.509,838.975Z" transform="translate(-1650.7 -752.88)" fill="#065099"/>
              </g>
            </g>
            <path id="Path_81" data-name="Path 81" d="M1519.645,477.406s-22.158,26.058-33.193,34.7c0,0-7.4-2.744-7.165-7.771,0,0,16.236-24.007,26.4-38.22C1505.691,466.14,1519.472,462.182,1519.645,477.406Z" transform="translate(-1431.282 -411.048)" fill="#e59375"/>
            <path id="Path_82" data-name="Path 82" d="M1404.782,590.393s-24.209,14.1-34.234,18.807c0,0-1.791,2.8,1.1,3.091,4.853.433,38.567-10.978,39.4-13.636C1414.894,586.291,1404.782,590.393,1404.782,590.393Z" transform="translate(-1353.571 -499.278)" fill="#e59375"/>
            <path id="Path_83" data-name="Path 83" d="M1565.492,466.475a9.037,9.037,0,0,0,11.556,5.344,8.9,8.9,0,0,0,5.229-11.527,9.038,9.038,0,0,0-11.556-5.344A8.947,8.947,0,0,0,1565.492,466.475Z" transform="translate(-1492.181 -403.035)" fill="#e59375"/>
            <path id="Path_84" data-name="Path 84" d="M1524.773,453.516a11.846,11.846,0,0,0-13.347,5L1492.1,486.565a31.973,31.973,0,0,0,13.4,13.809C1505.5,500.345,1540.114,468.451,1524.773,453.516Z" transform="translate(-1440.397 -402.065)" fill="#872952"/>
            <path id="Path_85" data-name="Path 85" d="M1755,1061.7" transform="translate(-1627.348 -834.893)" fill="#f7a483"/>
            <path id="Path_86" data-name="Path 86" d="M1662.771,340.031s1.589-3.062,5.113-8.956c0,0,7.482-7.685,3.293-17.362,0,0-2.311-8.089-16.438-6.9C1654.74,306.78,1653.411,329.053,1662.771,340.031Z" transform="translate(-1556.006 -297.997)" fill="#f8a07d"/>
            <path id="Path_87" data-name="Path 87" d="M1645.66,378.4s-2.369,22.187,2.687,23.862l-18.084-1.069s2.831-6.7-.462-11.642Z" transform="translate(-1538.318 -348.991)" fill="#f7a483"/>
            <path id="Path_88" data-name="Path 88" d="M1631.245,397.393c.289-5.056-.347-6.1-1.444-7.771l15.86-11.122a104.388,104.388,0,0,0-.491,13.665C1640.576,396.5,1636.762,397.509,1631.245,397.393Z" transform="translate(-1538.318 -349.062)" fill="#e1876f"/>
            <path id="Path_89" data-name="Path 89" d="M1577.871,450.033c-4.015,2.947-4.478,9.967-3.062,14.387,1.647,5.056,2.311,11.5,3.958,18.807,2.253,9.909,3.756,17.507,6.269,27.329,2.08,8.118,34.724,1.589,34.724,1.589l11.7-39.982s2.022-10.429-7.453-13.924c0,0-9.967-5.373-17.247-7.858-6.442-2.2-8.782-2.4-15.4-1.993C1591.391,448.386,1582.522,448.7,1577.871,450.033Z" transform="translate(-1498.695 -398.639)" fill="#f7a483"/>
            <path id="Path_90" data-name="Path 90" d="M1604.12,312.8c-.924,4.247-1.993,6.471-.809,10.371,1.069,3.5.809,7.193,2.34,10.573,2.2,4.853,5.027,4.218,7.193-.231,2.224-4.564,4.536-10.718-.491-14.1-3.236-2.167-4.391-5.893-8.233-6.616Z" transform="translate(-1519.109 -302.342)" fill="#271000"/>
            <path id="Path_91" data-name="Path 91" d="M1610.132,341.408l-.751-2.513-1.907-9.273a9.58,9.58,0,0,1,.144-3.842,9.545,9.545,0,0,0,.318-3.958c-1.156-6.644,2.484-10.111,2.484-10.111,4.131-5.893,13.231-5.431,13.231-5.431,11.209,1.127,11.614,12.047,11.614,12.047,1.473,7.338-4.594,13.058-4.622,13.087-.491.462-.376,2.86-.549,3.524-.751,2.86-3.582,4.507-6.1,5.6-2.773,1.213-6.1,2.484-9.1,2.6C1613.772,343.2,1610.565,342.853,1610.132,341.408Z" transform="translate(-1522.347 -297.699)" fill="#f8a07d"/>
            <path id="Path_92" data-name="Path 92" d="M1607.889,378.39c1.473,1.329,3.467.722,5.056,1.676a2.663,2.663,0,0,0,2.658.26,4.255,4.255,0,0,1,2.542.087c.924.26,2.629,1.1,3.553,1.444a3.372,3.372,0,0,0,4.016-.924c1.127-1.387,1.56-1.647,2.08-3.293.982-3.033,4.044-3.207,6.153-1.5a18.08,18.08,0,0,1-3.091,4.218c-.491.462-.376,4.824-.549,5.489-.751,2.86-3.582,4.507-6.1,5.6-2.773,1.213-6.962,1.387-10,1.5-1.156.058-3.467-1.156-3.9-2.6l-.751-2.513-1.907-9.273a3.207,3.207,0,0,1-.058-.52C1607.687,378.159,1607.8,378.275,1607.889,378.39Z" transform="translate(-1522.531 -346.612)" fill="#271000"/>
            <path id="Path_93" data-name="Path 93" d="M1597.731,291.016c2.542,0,2.513,2.138,4.449,3.322,4.16,2.542,10.631-1.184,14.011,2.918a9.187,9.187,0,0,1,.838,1.3,19.577,19.577,0,0,1,1.618,6.153c.087.607-.347,2.167.2,2.629a1.567,1.567,0,0,0,1.444,0c.116.924-.635,1.647-.953,2.484-.318.867-.809,1.589-.375,2.456,1.184,2.224.26,1.849.375,6.327a18.811,18.811,0,0,1,3.062-2.831,22.793,22.793,0,0,0,4.333-4.8,28.412,28.412,0,0,0,2.629-5.807c1.213-3.264,1.907-6.76.953-10.2,0,0-.78-7.916-7.4-8.782,0,0,.838-5.113-11.267-6.442,0,0-9.562.144-10.082-3.149a4.681,4.681,0,0,0-1.444,4.218s-3.929,1.213-5.72-3.293C1594.409,277.524,1591.144,289.369,1597.731,291.016Z" transform="translate(-1512.575 -276.6)" fill="#271000"/>
            <g id="Group_58" data-name="Group 58" transform="translate(106.011 29.033)">
              <g id="Group_54" data-name="Group 54">
                <g id="Group_53" data-name="Group 53">
                  <g id="Group_52" data-name="Group 52">
                    <g id="Group_51" data-name="Group 51">
                      <g id="Group_50" data-name="Group 50">
                        <path id="Path_94" data-name="Path 94" d="M1680.7,383.657a1.976,1.976,0,0,0,1.271.751c1.5.289,3.033-1.127,3.38-3.149.347-1.993-.578-3.871-2.08-4.131a2.427,2.427,0,0,0-2.022.636,5.033,5.033,0,0,0-1.155,3.553A3.555,3.555,0,0,0,1680.7,383.657Z" transform="translate(-1680.089 -377.099)" fill="#f8a07d"/>
                      </g>
                    </g>
                  </g>
                </g>
              </g>
              <g id="Group_57" data-name="Group 57" transform="translate(1.476 1.201)">
                <g id="Group_55" data-name="Group 55" transform="translate(0.723)">
                  <path id="Path_95" data-name="Path 95" d="M1687.729,381.876c.231-1.04,2.253.231,1.878.78a4.054,4.054,0,0,1-.953.751,1.588,1.588,0,0,0-.809,1.1c-.029.058-.058.231,0,.289.26.231,1.3-.693,1.531-.9a1.859,1.859,0,0,0,.462-1.676,1.1,1.1,0,0,0-1.1-.953c-.491-.029-.982-.058-1.04.549,0,.029,0,.116.029.058Z" transform="translate(-1687.7 -381.257)" fill="#e98b6f"/>
                </g>
                <g id="Group_56" data-name="Group 56" transform="translate(0 1.669)">
                  <path id="Path_96" data-name="Path 96" d="M1686.5,387.17c-.2-.26-.433-.087-.693.058a1.021,1.021,0,0,0-.462.578,2.474,2.474,0,0,0,.058,1.82,1.28,1.28,0,0,0,1.1.751c.665.058.925-.491,1.011-1.04.029-.144.087-.491-.058-.607s-.289.116-.4.2a1.016,1.016,0,0,1-.578.144,1.133,1.133,0,0,1-.924-.549l-.087-.173c-.029.347-.029.433.029.26a.629.629,0,0,1,.144-.231,6.357,6.357,0,0,1,.665-.578c.115-.116.289-.491.2-.636Z" transform="translate(-1685.198 -387.036)" fill="#e98b6f"/>
                </g>
              </g>
            </g>
            <path id="Path_97" data-name="Path 97" d="M1625.213,373.933l3.062,1.184s-4.131.26-4.276-.953c0,0,.635-2.34,1.3-4.564C1625.3,369.629,1624.751,373.76,1625.213,373.933Z" transform="translate(-1534.193 -342.733)" fill="#e98b6f"/>
            <g id="Group_59" data-name="Group 59" transform="translate(85.394 22.273)">
              <path id="Path_98" data-name="Path 98" d="M1646.7,366.856c0,.636.346,1.156.809,1.156.433,0,.78-.52.78-1.156s-.347-1.156-.78-1.156C1647.047,365.7,1646.7,366.22,1646.7,366.856Z" transform="translate(-1635.729 -362.233)" fill="#271000"/>
              <path id="Path_99" data-name="Path 99" d="M1616.2,363.456c0,.636.346,1.156.809,1.156.433,0,.78-.52.78-1.156s-.347-1.156-.78-1.156C1616.547,362.3,1616.2,362.82,1616.2,363.456Z" transform="translate(-1614.041 -359.816)" fill="#271000"/>
              <path id="Path_100" data-name="Path 100" d="M1642.867,358.477c-.289.058-.347-.318-.347-.318a1.342,1.342,0,0,1,.029-.693.682.682,0,0,1,.346-.347,9.636,9.636,0,0,1,3.38.433c.665.2,1.762.693,1.82,1.329.029.173.029.491-.173.549A26.422,26.422,0,0,0,1642.867,358.477Z" transform="translate(-1632.734 -356.108)" fill="#271000"/>
              <path id="Path_101" data-name="Path 101" d="M1608.833,355.058a22.509,22.509,0,0,1,3.929.4c.26.144.433-.2.433-.2a1.647,1.647,0,0,0,.173-.664.633.633,0,0,0-.231-.433,7.679,7.679,0,0,0-2.918-.462,5.469,5.469,0,0,0-1.473.2A2.775,2.775,0,0,0,1608.833,355.058Z" transform="translate(-1608.725 -353.7)" fill="#271000"/>
            </g>
            <g id="Group_60" data-name="Group 60" transform="translate(88.999 34.956)">
              <path id="Path_102" data-name="Path 102" d="M1621.519,397.6c-.26,0-.376.116-.289.289a3.777,3.777,0,0,0,6.529.809c.145-.173.029-.347-.289-.375C1627.47,398.293,1624.148,397.86,1621.519,397.6Z" transform="translate(-1621.202 -397.6)" fill="#fff"/>
            </g>
            <path id="Path_103" data-name="Path 103" d="M1683.324,735.571a24.572,24.572,0,0,1,0,23.776c-6.962,12.567-28.167,8-28.225-8.291C1655.042,734.993,1669.689,728.84,1683.324,735.571Z" transform="translate(-1556.308 -601.064)" fill="#065099"/>
            <path id="Path_104" data-name="Path 104" d="M1591.462,448.8s-8.869.318-13.491,1.647c-4.016,2.947-4.478,9.967-3.062,14.387,1.647,5.056,2.311,11.5,3.958,18.807,2.253,9.909-.578,17.131,1.907,26.953,2.08,8.118,45.269,0,45.269,0l5.489-38.018s2.022-10.429-7.453-13.924a128.021,128.021,0,0,0-16.813-7.684s1.127,7.684-11.411,5.576C1595.882,456.513,1588.226,454.664,1591.462,448.8Z" transform="translate(-1498.766 -399.053)" fill="#872952"/>
            <path id="Path_105" data-name="Path 105" d="M1636.323,648.322c1.82,6.529,3.293,28.542,3.293,28.542-4.969,20.6-50.671,5.778-50.931,2.831-.318-3.525,1.069-20.367,1.791-34.956C1590.476,644.74,1609.688,637.864,1636.323,648.322Z" transform="translate(-1509.047 -536.81)" fill="#872952"/>
            <path id="Path_106" data-name="Path 106" d="M1705.344,503.209c2.976,6.067,14.04,36.66,17.622,41.513.953,1.3,10.082,7.164,12.133-.838-5.027-31.778-12.624-49.891-12.624-49.891s-8.869-7.4-15.976-.549C1706.471,493.416,1703.235,498.991,1705.344,503.209Z" transform="translate(-1591.53 -428.733)" fill="#f7a483"/>
            <path id="Path_107" data-name="Path 107" d="M1702.329,493.681a10.679,10.679,0,1,0,12.307-8.753A10.675,10.675,0,0,0,1702.329,493.681Z" transform="translate(-1589.787 -424.636)" fill="#f7a483"/>
            <path id="Path_108" data-name="Path 108" d="M1705.358,478.8s9.187,3.438,11.354,10.891l5.662,20.28s-7.424,10.8-18.518,10.458l-10.949-24.3C1692.965,496.133,1685.6,482.469,1705.358,478.8Z" transform="translate(-1582.271 -420.387)" fill="#872952"/>
            <path id="Path_109" data-name="Path 109" d="M1318.61,651.753l2.831-.087s-5.171,1.329-6.818-.347c0,0-.433-.26.231-.867a38.618,38.618,0,0,0,6.558-.722,28.681,28.681,0,0,1-7.742.78s-1.271-.838.087-1.589c-1.011-.4-.145-1.069-.145-1.069a17.594,17.594,0,0,1,3.062-1.185s3.293-1.069,7.049-2.744c0,0-2.976-1.936-1.849-3.524l4.593,2.427,4.16,2.687.549,2.8-4.333,3s-4.218,1.676-6.587,1.762C1320.286,653.082,1313.468,652.822,1318.61,651.753Z" transform="translate(-1313.13 -535.302)" fill="#e59375"/>
            <path id="Path_110" data-name="Path 110" d="M1698.5,1028.867l11.873,74.071s3.929,3.784,13.087,0l1.531-36.2s2.687-23.92-6.789-40.965C1718.2,1025.776,1699.54,1010.725,1698.5,1028.867Z" transform="translate(-1587.171 -805.18)" fill="#065099"/>
            <path id="Path_111" data-name="Path 111" d="M1614.611,1025.2s5.056,7.309.52,34.782l-4.651,37.527a12.357,12.357,0,0,1-11.353.144l-3.727-74.736C1595.429,1022.92,1598.78,1010.209,1614.611,1025.2Z" transform="translate(-1513.855 -803.739)" fill="#104473"/>
          </g>
        </g>
        <g id="Group_65" data-name="Group 65" transform="translate(247.839 128.18)">
          <path id="Path_112" data-name="Path 112" d="M1319.46,712.565a2.906,2.906,0,0,0-1.444-2.369,2.752,2.752,0,0,0-.491-.289l-.173-.087c-.116-.058-.26-.115-.376-.173-.029,0-.058-.029-.087-.029s-.058-.029-.087-.029c-.2-.087-.433-.144-.635-.231h0l-.693-.173c-.029,0-.058-.029-.087-.029a.107.107,0,0,1-.087-.029c-.289-.058-.549-.116-.838-.173h-.087c-.289-.058-.607-.087-.9-.144h-.087c-.318-.029-.635-.087-.953-.116h-.058l-.78-.087c-.318-.029-.607-.058-.925-.116a.368.368,0,0,1-.173-.029c-.289-.029-.578-.087-.867-.116-.144-.029-.289-.058-.462-.087-.289-.058-.607-.116-.924-.173-.058,0-.115-.029-.173-.029a5.468,5.468,0,0,0-.664-.144h-.029c-.231-.058-.433-.116-.664-.173-.058-.029-.144-.029-.2-.058-.145-.058-.289-.087-.433-.144a1.41,1.41,0,0,1-.2-.087l-.433-.173c-.058-.029-.116-.029-.173-.058-.173-.087-.375-.144-.549-.231a14.765,14.765,0,0,1-2.427-1.589l.173,20.136a16.386,16.386,0,0,0,2.427,1.589c.173.087.347.144.549.231a.028.028,0,0,1,.029.029c.029.029.087.029.115.058.145.058.289.116.462.173a.537.537,0,0,0,.2.058c.145.058.289.087.462.144.029,0,.087.029.115.029s.058,0,.058.029c.231.058.433.116.664.173h0c.231.058.462.116.664.173h.058a.106.106,0,0,1,.087.029c.318.058.607.144.925.173a1.694,1.694,0,0,0,.376.058h.087c.289.058.578.087.867.116.058,0,.116.029.173.029.289.029.607.058.9.116h0a4.356,4.356,0,0,0,.578.058c.087,0,.173.029.231.029.318.029.664.087.982.116h.087a8.254,8.254,0,0,1,.9.144h.087c.289.058.578.115.838.173.058,0,.115.029.173.029l.693.173a6.065,6.065,0,0,1,.665.231.41.41,0,0,0,.173.058c.144.058.26.115.376.173l.173.087a2.735,2.735,0,0,1,.491.289,2.839,2.839,0,0,1,1.444,2.369Z" transform="translate(-1251.6 -690.32)" fill="#394572"/>
          <path id="Path_113" data-name="Path 113" d="M1165.554,809.076c.058-.029.145-.029.2-.058.087-.029.173-.029.289-.058.087,0,.145-.029.231-.029.058,0,.144-.029.2-.029l.144,16.871,27.936,18.836-.173-20.136-23.14-15.6c.347.029.664.087,1.011.145.087,0,.145.029.231.029a1.681,1.681,0,0,0,.375.058c.087.029.173.029.289.058s.231.058.376.087c.087.029.173.029.26.058.2.058.4.087.607.145.057,0,.115.029.173.029.26.058.491.145.751.2.058,0,.087.029.145.029.346.116.693.2,1.011.318.029,0,.029,0,.058.029.347.116.665.231,1.011.376.029,0,.058.029.087.029.375.145.751.318,1.127.491.029,0,.029.029.058.029.376.173.751.347,1.126.549a.028.028,0,0,1,.029.029c.375.2.751.4,1.1.607h.029c.375.231.722.433,1.069.664,3.091,2.08,4.709,4.42,4.709,6.413-.058-6.7-.116-13.433-.173-20.136-.029-1.993-1.647-4.333-4.709-6.413-.347-.231-.693-.462-1.069-.664h-.029c-.347-.2-.722-.4-1.1-.607a.028.028,0,0,1-.029-.029c-.376-.2-.751-.375-1.127-.549-.029,0-.029-.029-.058-.029-.376-.173-.751-.318-1.127-.491h-.029c-.029,0-.029,0-.058-.029-.347-.144-.665-.26-1.011-.375h-.029c-.347-.116-.693-.231-1.04-.318-.029,0-.058-.029-.087-.029h-.058a7.223,7.223,0,0,0-.751-.2,1.255,1.255,0,0,1-.145-.029,4.59,4.59,0,0,0-.607-.145c-.029,0-.087-.029-.115-.029s-.087-.029-.116-.029c-.116-.029-.26-.058-.375-.087-.087-.029-.173-.029-.26-.058a1.682,1.682,0,0,0-.376-.058c-.058,0-.115-.029-.173-.029h-.058c-.347-.058-.693-.116-1.04-.145h-.145c-.289-.029-.607-.058-.9-.087h-.173a14.739,14.739,0,0,0-1.589-.029h-.173c-.26,0-.491.029-.751.029h-.058c-.26.029-.52.058-.751.087h-.144c-.116.029-.2.029-.289.058-.058,0-.145.029-.2.029a1.232,1.232,0,0,1-.318.058c-.058,0-.116.029-.173.029h-.029c-.231.058-.433.116-.635.173-.058.029-.087.029-.145.058a5.21,5.21,0,0,0-.607.231c-.145.058-.289.144-.433.2a.219.219,0,0,1-.116.058c-.058.029-.087.058-.144.087-.029.029-.087.058-.115.087-.058.029-.087.058-.144.087a1.014,1.014,0,0,1-.231.144c-.029.029-.087.058-.116.087a.1.1,0,0,1-.058.029,1.672,1.672,0,0,0-.231.2l-.029.029-.173.173-.058.058-.087.087a.518.518,0,0,0-.145.2c-.029.029-.058.058-.058.087s-.029.029-.029.058c-.029.029-.029.058-.058.087-.029.058-.087.116-.115.173s-.058.087-.087.144a.6.6,0,0,1-.115.173c0,.029-.029.029-.029.058a.1.1,0,0,1-.029.058,1.559,1.559,0,0,0-.144.318c0,.029-.029.058-.029.087a2.9,2.9,0,0,1-.2.433c-.058.116-.087.231-.144.347-.029.029-.029.087-.058.116-.058.144-.115.26-.173.4-.029.058-.087.145-.116.2-.029.029-.029.058-.057.087-.058.087-.116.2-.173.289-.029.058-.087.115-.115.173-.058.087-.145.173-.2.26-.029.029-.058.087-.087.116-.087.116-.2.231-.289.347l-.029.029-.347.347a.4.4,0,0,1-.116.087,1.866,1.866,0,0,1-.26.231c-.058.029-.087.087-.144.116-.087.087-.2.144-.289.231a.506.506,0,0,0-.144.116,2.5,2.5,0,0,1-.462.289.1.1,0,0,1-.058.029h-.029c-.029,0-.029.029-.058.029a.028.028,0,0,0-.029.029c-.029,0-.058.029-.087.029s-.029.029-.058.029-.058.029-.087.029-.058.029-.087.029-.058.029-.087.029c-.029.029-.058.029-.087.058-.029,0-.058.029-.087.029-.029.029-.058.029-.115.058s-.087.058-.145.058a.1.1,0,0,0-.058.029.865.865,0,0,0-.231.115c-.52.231-1.156.491-1.7.693L1126.9,778.8l.173,20.136,27.965,18.865c.578-.2,1.184-.462,1.7-.693.145-.058.289-.144.433-.2h0l.173-.087h0c.058-.029.087-.029.115-.058.029,0,.029-.029.058-.029.029-.029.058-.029.087-.058.029,0,.029-.029.058-.029a.1.1,0,0,0,.058-.029c.029,0,.029-.029.058-.029s.029-.029.058-.029.029-.029.058-.029a19.393,19.393,0,0,0,.058-.058h0a4.4,4.4,0,0,0,.462-.318c.058-.029.087-.058.145-.087.087-.087.2-.144.289-.231.029-.029.058-.029.058-.058l.058-.058a1.869,1.869,0,0,1,.26-.231c.029-.029.087-.058.116-.116l.347-.347h0l.029-.029a3.029,3.029,0,0,0,.289-.347c.029-.029.058-.087.087-.116.058-.087.145-.173.2-.26.029-.029.029-.058.058-.058.029-.029.058-.087.087-.116.058-.087.116-.2.173-.289.029-.029.029-.087.058-.116l.087-.173h0a2.625,2.625,0,0,1,.2-.4c.029-.029.029-.087.058-.116a3.37,3.37,0,0,1,.144-.318,2.945,2.945,0,0,1,.2-.433c0-.029.029-.029.029-.058a1.76,1.76,0,0,0,.144-.347c.029-.058.058-.087.058-.116a1.664,1.664,0,0,1,.116-.2c.029-.058.058-.087.087-.144s.087-.116.115-.173.058-.087.087-.144c.029-.029.058-.058.058-.087.058-.058.087-.116.144-.173l.087-.087a1.753,1.753,0,0,1,.231-.231l.029-.029a1.137,1.137,0,0,1,.289-.231c.029-.029.087-.058.115-.087a1.6,1.6,0,0,1,.231-.173c.058-.029.087-.058.145-.087a1.169,1.169,0,0,1,.26-.144c.029-.029.087-.029.115-.058a2.925,2.925,0,0,1,.433-.2c.2-.087.4-.144.607-.231.058-.029.087-.029.144-.058A2.279,2.279,0,0,0,1165.554,809.076Z" transform="translate(-1126.871 -742.515)" fill="#424888"/>
          <g id="Group_63" data-name="Group 63" transform="translate(67.514 45.558)">
            <path id="Path_114" data-name="Path 114" d="M1447.051,810.9l.173,20.136-86.551,36.4-.173-20.107Z" transform="translate(-1360.5 -810.9)" fill="#5860ab"/>
          </g>
          <g id="Group_64" data-name="Group 64">
            <path id="Path_115" data-name="Path 115" d="M1126.8,689.629l35.793-15.08a16.594,16.594,0,0,1,2.8,2.138c1.675,2.2-.491,5.2,2.311,7.107,3.467,2.34,11.96,1.82,19.009-1.127.2-.087.375-.173.578-.26,6.615-2.947,9.273-7.078,5.893-9.331-2.138-1.444-5.865-1.358-8.869-1.907a19.33,19.33,0,0,1-4.42-1.3,14.771,14.771,0,0,1-2.427-1.589l35.851-15.08,67.514,45.558-86.523,36.429-27.936-18.836.347-.173c1.387-.607,3.38-1.271,3.7-1.358,4.16-.925,9.793.2,13.4-1.329,4.42-1.964,3.525-6.413-1.907-10.082-5.489-3.7-13.52-5.2-17.969-3.322-2.745,1.213-2.629,3.149-3.7,4.738a7.856,7.856,0,0,1-2.484,2.369,11.081,11.081,0,0,1-1.271.607c-.52.231-1.156.491-1.7.693Z" transform="translate(-1126.8 -653.2)" fill="#6174b8"/>
          </g>
        </g>
        <g id="Group_78" data-name="Group 78" transform="translate(0 126.647)">
          <path id="Path_116" data-name="Path 116" d="M549.757,1005.606s2.976-1.935.116-5.46c-7.338-.462-16-4.449-16-4.449-10.8-3.409-25.971-20.136-32.876-27.734-7.771-8.551-19.5-1.3-13.2,8.465,11.787,18.258,42.785,30.276,61.794,29.582" transform="translate(-423.281 -872.801)" fill="#f8a07d"/>
          <path id="Path_117" data-name="Path 117" d="M371.9,1215.323c4.507-21.089,5.864-69.94,5.864-69.94s-3.611-4.8-16.64-5.633c-13.058-.838-12.162,7.193-12.1,6.153,0,0,0,34.58,6.009,68.611C355,1214.485,364.3,1220.9,371.9,1215.323Z" transform="translate(-325.85 -997.613)" fill="#053b6b"/>
          <path id="Path_118" data-name="Path 118" d="M348.675,1104.547c-1.271-8.724,1.387-17.536,2.744-26.347h39.693c2.542,8.464,5.171,17.16,5.171,17.16s1.7,20.02-15.282,22.418C381,1117.749,351.39,1122.891,348.675,1104.547Z" transform="translate(-325.39 -953.888)" fill="#007ea3"/>
          <path id="Path_119" data-name="Path 119" d="M268.9,1621.649c0,16.813,30.651,30.449,68.467,30.449s68.467-13.636,68.467-30.449-30.651-30.449-68.467-30.449S268.9,1604.836,268.9,1621.649Z" transform="translate(-268.9 -1318.688)" fill="#9eabd3"/>
          <g id="Group_66" data-name="Group 66" transform="translate(95.189 292.12)">
            <path id="Path_120" data-name="Path 120" d="M611.487,1668.816l-2.253-.144c-.78-.116-.751,1.1-.867,1.127a27.009,27.009,0,0,1-5.344,1.7s-4.189-.549-4.622-1.82l.578-7.771c4.651-.4,9.533-1.3,9.533-1.3l10.256-1.444c4.94-.52,5.836,1.271,5.836,1.271S627.578,1665,611.487,1668.816Z" transform="translate(-598.4 -1659.072)" fill="#17181c"/>
            <path id="Path_121" data-name="Path 121" d="M605.276,1670.436a12.411,12.411,0,0,1,2.658-.867c5.056-.9,10-1.387,14.213-4.622a4.058,4.058,0,0,0,1.82-2.947,2.016,2.016,0,0,1,.607.578s3,4.507-13.087,8.32l-2.253-.145c-.78-.116-.751,1.1-.867,1.127a27,27,0,0,1-5.344,1.7s-4.189-.549-4.622-1.82l.144-1.878A7.863,7.863,0,0,0,605.276,1670.436Z" transform="translate(-598.4 -1661.154)" fill="#040308"/>
          </g>
          <g id="Group_67" data-name="Group 67" transform="translate(26.751 290.213)">
            <path id="Path_122" data-name="Path 122" d="M374.587,1662.216l-2.253-.145c-.78-.116-.751,1.1-.867,1.127a27.013,27.013,0,0,1-5.344,1.7s-4.189-.549-4.622-1.82l.578-7.771c4.651-.4,9.533-1.3,9.533-1.3l10.256-1.445c4.94-.52,5.836,1.271,5.836,1.271S390.678,1658.374,374.587,1662.216Z" transform="translate(-361.5 -1652.472)" fill="#17181c"/>
            <path id="Path_123" data-name="Path 123" d="M368.376,1663.835a12.452,12.452,0,0,1,2.658-.867c5.056-.9,10-1.387,14.213-4.622a4.058,4.058,0,0,0,1.82-2.946,2.016,2.016,0,0,1,.607.578s3.033,4.507-13.087,8.32l-2.253-.144c-.78-.116-.751,1.1-.867,1.126a27.018,27.018,0,0,1-5.344,1.7s-4.189-.549-4.622-1.82l.144-1.878A8.07,8.07,0,0,0,368.376,1663.835Z" transform="translate(-361.5 -1654.554)" fill="#040308"/>
          </g>
          <path id="Path_124" data-name="Path 124" d="M369.539,1459.78c1.676-1.993,7.193-75.573,7.193-75.573.924-11.324-17.882-6.558-17.882-6.558-2.744,11.267-2.282,13.376-3.149,27.358-.347,5.518.549,51.22.347,54.745C355.99,1459.722,364.744,1465.5,369.539,1459.78Z" transform="translate(-330.568 -1166.121)" fill="#053b6b"/>
          <path id="Path_125" data-name="Path 125" d="M379.408,1107.255s11.3,19.24,4.333,31.807-36.227-1.1-34.436-15.658C351.3,1107.428,365.773,1100.495,379.408,1107.255Z" transform="translate(-326.021 -972.716)" fill="#30528b"/>
          <path id="Path_126" data-name="Path 126" d="M387.32,1017.818c1.849,6.529,9.389,31.431,9.389,31.431-20.742,19.558-47.493,4.044-47.753,1.1-.318-3.524,3.64-17.044,4.333-31.633C353.289,1018.743,360.684,1007.361,387.32,1017.818Z" transform="translate(-325.815 -907.807)" fill="#f7a483"/>
          <path id="Path_127" data-name="Path 127" d="M512,1408.1" transform="translate(-441.771 -1188.483)" fill="#152035"/>
          <path id="Path_128" data-name="Path 128" d="M447.638,1196.089c-2.2-21.464-17.478-76.209-17.478-76.209s-4.478-4.1-17.131-.9c-12.682,3.236-14.069,19.731-14.329,18.72,0,0,14.733,34.638,34.32,65.173C433.049,1202.878,442.5,1207.731,447.638,1196.089Z" transform="translate(-361.202 -982.02)" fill="#30528b"/>
          <path id="Path_129" data-name="Path 129" d="M543.534,1455.812c-.376-2.6-19.442-79.474-19.442-79.474-4.478-9.476-17.391.491-17.391.491a81.945,81.945,0,0,0,4.68,28.455c1.762,5.258,17.969,52.723,19.1,56.045C530.476,1461.358,540.067,1464.392,543.534,1455.812Z" transform="translate(-438.002 -1162.99)" fill="#30528b"/>
          <g id="Group_68" data-name="Group 68" transform="translate(11.355 51.948)">
            <path id="Path_130" data-name="Path 130" d="M309.389,846.234s-2.051,34.522-.751,48.476c0,0,0,6.327,11.151,9.5,0,0,4.073-38.451,7.367-55.611C327.155,848.632,320.569,835.892,309.389,846.234Z" transform="translate(-308.206 -838.005)" fill="#e59375"/>
            <path id="Path_131" data-name="Path 131" d="M324.519,844.869A9.03,9.03,0,0,1,312.7,840.16a8.9,8.9,0,0,1,4.767-11.729,9.031,9.031,0,0,1,11.816,4.709A8.911,8.911,0,0,1,324.519,844.869Z" transform="translate(-310.885 -827.712)" fill="#e59375"/>
          </g>
          <path id="Path_132" data-name="Path 132" d="M314.809,822.4a11.816,11.816,0,0,0-8.58,11.353L304.9,867.785a31.917,31.917,0,0,0,18.691,4.478C323.591,872.291,335.782,826.82,314.809,822.4Z" transform="translate(-294.5 -771.986)" fill="#ffd47c"/>
          <path id="Path_133" data-name="Path 133" d="M507,1429.6" transform="translate(-438.215 -1203.772)" fill="#f7a483"/>
          <path id="Path_134" data-name="Path 134" d="M406.76,747.6s.087,12.162,1.127,24.267l-16.033-2.658s2.34-5.518-.953-10.487Z" transform="translate(-355.655 -718.795)" fill="#f7a483"/>
          <path id="Path_135" data-name="Path 135" d="M329.871,817.962c-4.016,2.947-4.478,10-3.062,14.387,1.647,5.055,2.311,11.5,3.958,18.807,2.253,9.909,3.756,17.507,6.269,27.329,2.08,8.118,34.725,1.589,34.725,1.589l11.7-39.982s2.022-10.429-7.453-13.924c0,0-9.967-5.373-17.247-7.858-6.442-2.2-8.782-2.4-15.4-1.964C343.362,816.315,334.522,816.633,329.871,817.962Z" transform="translate(-309.562 -767.548)" fill="#f7a483"/>
          <path id="Path_136" data-name="Path 136" d="M435.324,1103.471a24.573,24.573,0,0,1,0,23.776c-6.962,12.567-28.167,8-28.225-8.291C407.042,1102.893,421.689,1096.74,435.324,1103.471Z" transform="translate(-367.175 -969.944)" fill="#30528b"/>
          <path id="Path_137" data-name="Path 137" d="M343.505,816.7s-8.869.318-13.491,1.647c-4.189,3.062-4.1,9.071-3.293,13.636,1.531,8.7,3.12,17.507,3.929,26.289.347,3.9,1.329,11.845,1.618,15.745.289,3.785,1.473,5.865,5.373,7.887,2.947,1.531,5.142.318,8.349.4a159.351,159.351,0,0,0,24.325-1.676c.347-.029,12.971,8.465,8.811,2.224l4.507-42.38s2.022-10.429-7.453-13.924a76.5,76.5,0,0,0-13.953-6.645S349.543,820.224,343.505,816.7Z" transform="translate(-309.705 -767.933)" fill="#ffd47c"/>
          <path id="Path_138" data-name="Path 138" d="M391.279,707.355l.693-2.629,1.618-9.736a9.5,9.5,0,0,0-.318-4.016,9.739,9.739,0,0,1-.491-4.1c.924-6.962-2.976-10.429-2.976-10.429-4.536-5.98-14.011-5.142-14.011-5.142-4.911.751-9.187,2.773-11.613,7.251-2.224,4.044-3.409,9.013-2.109,13.52a27.529,27.529,0,0,0,7.887,12.365c2.369,2.253,4.767,2.542,7.858,3.669a32.711,32.711,0,0,0,8.522,1.271C387.552,709.348,390.874,708.886,391.279,707.355Z" transform="translate(-334.772 -664.51)" fill="#f8a07d"/>
          <path id="Path_139" data-name="Path 139" d="M385.886,675.339l-1.5,6.038c-1.733.751-2.4,1.416-2.167,3.669l.549,5-1.358.52c.116-1.993-2.658-2.022-2.658-2.022-2.022-.116-2.369,1.618-2.253,3.264.289,4.333-1.271,11.18-4.882,12.393-1.444.491-4.131.982-4.564-.953-.549-2.369-5.027-7.078-5.027-7.078-5.4-5.229-6.731-14.127-4.189-20.944a16.449,16.449,0,0,1,3.871-5.72,20.9,20.9,0,0,1,12.047-5.373s6.153-.751,9.591,1.676a19.784,19.784,0,0,1,4.449,4.073C387.764,669.879,389.064,672.652,385.886,675.339Z" transform="translate(-331.257 -659.361)" fill="#3f1901"/>
          <g id="Group_73" data-name="Group 73" transform="translate(44.532 28.687)">
            <g id="Group_72" data-name="Group 72">
              <g id="Group_71" data-name="Group 71">
                <g id="Group_70" data-name="Group 70">
                  <g id="Group_69" data-name="Group 69">
                    <path id="Path_140" data-name="Path 140" d="M428.2,753.956a2.717,2.717,0,0,1-1.589.607,3.655,3.655,0,0,1-3.553-3.524,3.348,3.348,0,0,1,2.947-3.842,3.229,3.229,0,0,1,2.282.867c.924.838,1.04,2.513.924,3.669A3.555,3.555,0,0,1,428.2,753.956Z" transform="translate(-423.047 -747.194)" fill="#f8a07d"/>
                  </g>
                </g>
              </g>
            </g>
          </g>
          <g id="Group_76" data-name="Group 76" transform="translate(46.158 29.845)">
            <g id="Group_74" data-name="Group 74">
              <path id="Path_141" data-name="Path 141" d="M430.85,751.864c-.173-1.069-2.282.087-1.907.693a2.672,2.672,0,0,0,.924.78,1.694,1.694,0,0,1,.751,1.127c0,.058.029.26-.029.289-.26.2-1.242-.78-1.473-.982a1.817,1.817,0,0,1-.376-1.7,1.068,1.068,0,0,1,1.127-.867c.491,0,.982,0,.982.607.029,0,0,.116,0,.058Z" transform="translate(-428.677 -751.2)" fill="#e98b6f"/>
            </g>
            <g id="Group_75" data-name="Group 75" transform="translate(0.417 1.707)">
              <path id="Path_142" data-name="Path 142" d="M431.24,757.223c.2-.231.433-.058.693.087a1.038,1.038,0,0,1,.433.607,2.4,2.4,0,0,1-.144,1.791,1.406,1.406,0,0,1-1.127.693c-.664.029-.9-.549-.953-1.1-.029-.144-.058-.491.087-.607s.289.116.376.231a.976.976,0,0,0,.578.173,1.248,1.248,0,0,0,.953-.491l.087-.173c.029.376,0,.433-.029.26a1.175,1.175,0,0,0-.144-.26c-.173-.231-.433-.4-.607-.636-.116-.087-.289-.462-.2-.578Z" transform="translate(-430.118 -757.11)" fill="#e98b6f"/>
            </g>
          </g>
          <g id="Group_77" data-name="Group 77" transform="translate(124.036 126.218)">
            <path id="Path_143" data-name="Path 143" d="M712.018,1087.716c-.838-1.242-.116-1.877-1.791-1.936-1.907-.057-3.64-1.011-4.94-.982-2.253.058-10.833,2.051-5.084,6.962,1.329,1.156,5.171,6.269,7.8,4.738,3.9-2.253,2.571-1.416,4.564-6.269Z" transform="translate(-698.253 -1084.798)" fill="#f7a483"/>
          </g>
          <path id="Path_144" data-name="Path 144" d="M465.768,866.051a10.037,10.037,0,1,0,13.867-3.033A10.008,10.008,0,0,0,465.768,866.051Z" transform="translate(-407.759 -799.748)" fill="#f7a483"/>
          <path id="Path_145" data-name="Path 145" d="M391.687,996.527c1.3,13.693,2.138,47.233,2.138,47.233-4.853,12.971-51.22,2.022-51.48-.924-.318-3.525.636-28.456,1.329-43.016A55.822,55.822,0,0,1,391.687,996.527Z" transform="translate(-321.083 -893.016)" fill="#ffd47c"/>
          <path id="Path_146" data-name="Path 146" d="M461.533,846.8c12.22,3.438,13.722,18.2,13.722,18.2l5.518,24.267s-13.867,11.007-22.331,7.916c0,0-6.876-18.316-9.042-36.574C449.4,860.609,449.487,847.2,461.533,846.8Z" transform="translate(-397.255 -789.337)" fill="#ffd47c"/>
          <path id="Path_147" data-name="Path 147" d="M377.969,663.725c-1.387,1.1-3.149.376-4.709.029-2.138,2.513.433,5.056-2.831,6.269a35.441,35.441,0,0,1-6.182,1.127c-1.531.26-3.062-.116-4.16,1.04-1.184,1.242-.058,5.084-1.444,5.807-2.427,1.3-4.362-5.4-7.453-4.853-2.658.462-3.12,4.651-2.2,6.731a3.488,3.488,0,0,0-.693-.462c-1.271-3.293-2.889-3.351-4.276-5.691-2.167-3.64-1.791-2.773-2.224-6.269,0-.029.433-1.531.433-1.56,1.011-3.727,2.744-4.333,3.582-5.922.867-1.676,2.224-2.831,3.38-4.3,1.04-1.358,1.56-3.178,2.744-4.391,1.82-1.82,4.8-2.745,7.28-3.091,2.687-.347,5.229,1.3,7.916.838,1.1-.2,2.109-1.184,3.207-1.127,1.329.087,2.253,1.387,3.409,1.907,2.138.953,5.518.578,7.367,2.08,2.022,1.676,1.589,4.073.347,6.124-.693,1.156-2.109,1.82-2.744,3C378.489,661.385,378.027,663.7,377.969,663.725Z" transform="translate(-320.74 -647.891)" fill="#3f1901"/>
        </g>
        <g id="Group_79" data-name="Group 79" transform="translate(402.472 131.95)">
          <path id="Path_148" data-name="Path 148" d="M1723.6,667.016a378.08,378.08,0,0,0-19.9,41.4s.173,4.16,3.235,2.889c3.062-1.3,27.878-36.429,27.907-39.636C1734.9,663.462,1723.6,667.016,1723.6,667.016Z" transform="translate(-1691.672 -666.25)" fill="#f7a483"/>
          <path id="Path_149" data-name="Path 149" d="M1668.143,811.944l2.687-.924s-4.536,2.8-6.616,1.676c0,0-.491-.116-.029-.9a39.388,39.388,0,0,0,6.067-2.658,29.281,29.281,0,0,1-7.164,3.033.839.839,0,0,1-.376-1.531c-1.1-.087-.462-.982-.462-.982a18.9,18.9,0,0,1,2.6-2.051,72.635,72.635,0,0,0,5.922-4.709s-3.409-.982-2.831-2.8l5.113.953,4.767,1.329,1.358,2.513-3.236,4.16s-3.524,2.86-5.778,3.64C1670.136,812.724,1663.549,814.516,1668.143,811.944Z" transform="translate(-1662.066 -761.432)" fill="#f7a483"/>
        </g>
        <g id="Group_85" data-name="Group 85" transform="translate(211.41 227.645)">
          <path id="Path_150" data-name="Path 150" d="M1294.4,1056.291a3.493,3.493,0,0,1,1.936-2.629l.173-.087c.116-.058.231-.115.376-.173.029,0,.058-.029.087-.029s.058-.029.087-.029a4.1,4.1,0,0,1,.635-.2h0c.231-.058.433-.115.664-.173.029,0,.058-.029.087-.029a.217.217,0,0,0,.116-.029,7.973,7.973,0,0,1,.809-.144h.116a8.321,8.321,0,0,1,.838-.116h.115c.318-.029.607-.087.924-.116h.058c.058,0,.145-.029.2-.029a4.309,4.309,0,0,1,.636-.058c.289-.029.578-.058.867-.116a.366.366,0,0,0,.173-.029c.289-.029.578-.087.838-.116l.433-.087c.289-.058.607-.115.9-.173.058,0,.116-.029.173-.029.2-.058.433-.087.635-.145h.029c.2-.058.433-.115.635-.173.058-.029.145-.029.2-.058.145-.058.289-.087.433-.145a1.388,1.388,0,0,0,.2-.086,2.539,2.539,0,0,1,.433-.145c.058-.029.116-.029.173-.058.173-.087.375-.144.549-.231a14.994,14.994,0,0,0,2.369-1.56l-.173,19.818a17.471,17.471,0,0,1-2.369,1.56c-.173.087-.347.144-.549.231a.028.028,0,0,0-.029.029.218.218,0,0,0-.116.058,2.54,2.54,0,0,1-.433.144.535.535,0,0,1-.2.058c-.144.058-.289.087-.433.145-.058,0-.087.029-.145.029-.029,0-.058,0-.058.029-.2.058-.433.116-.636.173h-.029a5.061,5.061,0,0,1-.635.144c-.029,0-.058,0-.058.029a.219.219,0,0,0-.116.029c-.289.058-.607.115-.9.173a1.46,1.46,0,0,1-.375.058h-.087a8.351,8.351,0,0,1-.838.115c-.058,0-.116.029-.2.029a8.352,8.352,0,0,0-.838.116h-.029a4.318,4.318,0,0,1-.606.058c-.087,0-.2.029-.289.029-.318.029-.607.058-.924.116h-.116c-.289.029-.578.087-.838.116a.174.174,0,0,0-.116.029c-.289.058-.549.087-.838.145-.058,0-.116.029-.173.029-.231.058-.462.116-.664.173h0a4.134,4.134,0,0,0-.635.231.409.409,0,0,1-.173.058c-.115.058-.26.115-.375.173l-.173.087a4.37,4.37,0,0,0-.491.289,2.931,2.931,0,0,0-1.444,2.34Z" transform="translate(-1209.411 -1034.336)" fill="#004e89"/>
          <path id="Path_151" data-name="Path 151" d="M1026.987,1087.327c0-.029-.029-.087-.029-.116s-.029-.058-.029-.115v-.029a.216.216,0,0,0-.029-.145v-.4l.173-19.818v.433a.216.216,0,0,0,.029.145c0,.058.029.087.029.144,0,.029.029.087.029.115,0,.058.029.087.029.145,0,.029.029.087.029.115s0,.029.029.058c.058.144.116.26.173.4h0c.058.116.145.231.231.375,0,.029.029.029.029.058l.26.347.087.087.087.087c.029.029.087.058.116.116a77.778,77.778,0,0,0,.231.173,1.2,1.2,0,0,0,.2.144.4.4,0,0,0,.115.087c.087.058.145.087.231.144.029.029.058.029.087.058a1.7,1.7,0,0,0,.231.116c.029.029.058.029.087.058l.346.173.693.26a.886.886,0,0,0,.231.058c.173.058.318.087.491.144.058,0,.087.029.144.029a4.1,4.1,0,0,0,.578.115c.087,0,.145.029.231.029.173.029.375.058.549.087.058,0,.115.029.173.029.231.029.491.058.722.087.144,0,.318.029.462.029s.26.029.4.029a2.813,2.813,0,0,1,.491.029h.375c.318,0,.607,0,.924.029h3.178a2.63,2.63,0,0,1,.462.029c.144,0,.289.029.433.029s.289.029.433.029h.144a2.855,2.855,0,0,1,.491.058h.087l.607.087h.087c.289.058.607.087.9.173h.087c.029,0,.029,0,.058.029.029,0,.029,0,.058.029.029,0,.058.029.087.029s.029,0,.058.029c.029,0,.058.029.115.029.029,0,.029,0,.058.029.029,0,.087.029.116.029s.058.029.087.029c.058,0,.087.029.144.058.029,0,.058.029.087.029.058.029.087.029.144.058.029,0,.058.029.087.029.058.029.116.029.144.058.029,0,.058.029.087.029.058.029.087.029.144.058a.22.22,0,0,1,.116.058c.058.029.087.029.144.058.029.029.087.029.116.058.058.029.087.029.144.058.029.029.087.029.145.058s.087.029.145.058.087.029.144.058.087.029.145.058.087.029.145.058.087.029.144.058c.029.029.087.029.116.058a.487.487,0,0,0,.144.058c.029.029.087.029.116.058.087.029.173.087.26.116l.347.173-.173,19.789-.347-.173c-.087-.029-.173-.087-.26-.115-.029,0-.058-.029-.087-.029l-.173-.087c-.029,0-.058-.029-.116-.029a.41.41,0,0,0-.173-.058c-.029-.029-.087-.029-.115-.058-.058-.029-.116-.029-.173-.058-.029-.029-.087-.029-.116-.058-.058-.029-.116-.029-.144-.057-.058-.029-.087-.029-.116-.058-.058-.029-.087-.029-.145-.058-.029-.029-.087-.029-.115-.058-.058-.029-.087-.029-.145-.058-.029,0-.087-.029-.115-.029-.058-.029-.087-.029-.145-.058s-.087-.029-.115-.058c-.029,0-.087-.029-.116-.029-.029-.029-.087-.029-.115-.058-.029,0-.087-.029-.116-.029s-.087-.029-.115-.029-.087-.029-.116-.029-.058-.029-.087-.029-.058-.029-.087-.029-.058-.029-.087-.029-.058-.029-.087-.029-.058-.029-.087-.029a.1.1,0,0,1-.058-.029c-.029,0-.029,0-.058-.029-.029,0-.029,0-.058-.029h-.086c-.289-.058-.578-.116-.9-.173l-.693-.087h-.115c-.2-.029-.4-.029-.607-.058-.145,0-.289-.029-.433-.029s-.289-.029-.433-.029a2.175,2.175,0,0,1-.433-.029h-3.207c-.318,0-.607,0-.924-.029h-.433a2.469,2.469,0,0,1-.462-.029c-.144,0-.26-.029-.4-.029s-.289-.029-.462-.029h-.058c-.231-.029-.462-.029-.693-.058a.365.365,0,0,1-.173-.029c-.116-.029-.231-.029-.347-.058h0c-.086,0-.144-.029-.231-.029s-.145-.029-.231-.029c-.2-.029-.376-.087-.578-.116-.058,0-.087-.029-.145-.029h-.029c-.144-.029-.318-.087-.462-.116-.087-.029-.173-.029-.231-.058l-.693-.26-.347-.173c-.029-.029-.087-.029-.115-.058-.058-.029-.144-.087-.2-.116h-.029c-.029-.029-.058-.029-.087-.058-.087-.058-.144-.087-.231-.145a.4.4,0,0,0-.115-.087c-.058-.057-.115-.087-.173-.144l-.058-.058h0c-.029,0-.029-.029-.058-.029l-.087-.087-.116-.115-.087-.087-.058-.058-.029-.029a2.706,2.706,0,0,1-.26-.347l-.029-.029a.028.028,0,0,0-.029-.029,4.268,4.268,0,0,1-.231-.375h0c-.058-.116-.115-.26-.173-.4v-.029h0v-.029c0-.029-.029-.058-.029-.115A1.31,1.31,0,0,0,1026.987,1087.327Z" transform="translate(-1019.331 -1046.709)" fill="#004e89"/>
          <g id="Group_81" data-name="Group 81" transform="translate(0 44.894)">
            <g id="Group_80" data-name="Group 80">
              <path id="Path_152" data-name="Path 152" d="M1000.873,1152.9l-.173,19.789,85.165,35.851.173-19.818Z" transform="translate(-1000.7 -1152.9)" fill="#0061a2"/>
            </g>
          </g>
          <g id="Group_82" data-name="Group 82" transform="translate(85.165 35.88)">
            <path id="Path_153" data-name="Path 153" d="M1295.673,1166.536l-.173,19.818,66.416-44.836.173-19.818Z" transform="translate(-1295.5 -1121.7)" fill="#004e89"/>
          </g>
          <g id="Group_84" data-name="Group 84" transform="translate(0.173)">
            <g id="Group_83" data-name="Group 83">
              <path id="Path_154" data-name="Path 154" d="M1152.88,1033.38l-35.216-14.82a17.387,17.387,0,0,0-2.744,2.08c-1.647,2.167.491,5.113-2.282,6.991-3.409,2.282-11.758,1.791-18.691-1.127-.2-.087-.376-.173-.578-.26-6.5-2.889-9.1-6.962-5.807-9.187,2.109-1.415,5.749-1.329,8.724-1.878a19.251,19.251,0,0,0,4.362-1.271,14.986,14.986,0,0,0,2.369-1.56L1067.745,997.5l-27.531,18.634c-.578-.2-1.184-.433-1.7-.665-.636-.289-1.1-.52-1.242-.607a7.867,7.867,0,0,1-2.427-2.34c-1.04-1.56-.953-3.467-3.525-4.593-4.478-1.878-12.393-.433-17.8,3.207-5.344,3.611-6.211,7.973-2.022,9.851,3.7,1.56,9.216.462,13.318,1.358a30.029,30.029,0,0,1,3.611,1.329l.347.173-27.473,18.547,85.165,35.823Z" transform="translate(-1001.3 -997.5)" fill="#196eab"/>
            </g>
          </g>
        </g>
        <g id="Group_117" data-name="Group 117" transform="translate(298.828 188.681)">
          <path id="Path_155" data-name="Path 155" d="M1456.8,1783.638c0,11.96-21.782,21.638-48.649,21.638s-48.649-9.678-48.649-21.638S1381.282,1762,1408.149,1762,1456.8,1771.678,1456.8,1783.638Z" transform="translate(-1343.264 -1502.18)" fill="#9eabd3"/>
          <g id="Group_116" data-name="Group 116">
            <g id="Group_87" data-name="Group 87" transform="translate(28.851 276.258)">
              <g id="Group_86" data-name="Group 86" transform="translate(7.429)">
                <path id="Path_156" data-name="Path 156" d="M1432.848,1823.436s-5.171-.953-3.7,3.264c0,0,12.047,5.171,20.454,4.016,0,0,5.922-.2,5-6.616l.087-5.2-7.945,1.5.462,4.94Z" transform="translate(-1428.886 -1818.9)" fill="#e59375"/>
              </g>
              <path id="Path_157" data-name="Path 157" d="M1436.314,1833.876a3.371,3.371,0,0,1-.78,2.224c-2.08,2.4-6.153,2.455-9.042,2.282a96.641,96.641,0,0,1-13.751-1.936c-.982-.2-1.242-.52-1.271-.809a3.982,3.982,0,0,1,3.091-2.427l-4.391-.549c-4.044-.145-5.893.78-6.847,1.386-1.127,3.207,4.333,5.345,4.333,5.345a90.15,90.15,0,0,0,12.8,3.582s15.427,3.64,17.276-1.1Z" transform="translate(-1403.17 -1828.676)" fill="#4f1531"/>
            </g>
            <g id="Group_89" data-name="Group 89" transform="translate(59.474 269.094)">
              <g id="Group_88" data-name="Group 88" transform="translate(7.429)">
                <path id="Path_158" data-name="Path 158" d="M1538.848,1798.636s-5.171-.953-3.7,3.265c0,0,12.047,5.171,20.453,4.016,0,0,5.922-.2,5-6.615l.087-5.2-7.945,1.5.462,4.969Z" transform="translate(-1534.885 -1794.1)" fill="#e59375"/>
              </g>
              <path id="Path_159" data-name="Path 159" d="M1542.314,1809.076a3.371,3.371,0,0,1-.78,2.224c-2.08,2.4-6.153,2.456-9.042,2.282a96.66,96.66,0,0,1-13.751-1.936c-.982-.2-1.242-.52-1.271-.809a3.982,3.982,0,0,1,3.091-2.427l-4.391-.549c-4.044-.145-5.893.78-6.847,1.387-1.127,3.207,4.333,5.344,4.333,5.344a90.154,90.154,0,0,0,12.8,3.582s15.427,3.64,17.276-1.1Z" transform="translate(-1509.17 -1803.876)" fill="#4f1531"/>
            </g>
            <g id="Group_93" data-name="Group 93" transform="translate(36.542 104.686)">
              <g id="Group_90" data-name="Group 90" transform="translate(32.8 14.993)">
                <path id="Path_160" data-name="Path 160" d="M1543.7,1291.633a14.733,14.733,0,1,0,14.734-14.733A14.74,14.74,0,0,0,1543.7,1291.633Z" transform="translate(-1543.593 -1276.9)" fill="#00468b"/>
                <path id="Path_161" data-name="Path 161" d="M1567.414,1393.815s-.2,3.7-6.847,3.784c0,0-6.3,2.138-9.013-6.038-10.718-32.269-7.887-65.954-7.887-65.954s15.109-8.407,29.207-2.658C1572.874,1322.951,1570.592,1365.3,1567.414,1393.815Z" transform="translate(-1543.329 -1308.217)" fill="#00468b"/>
              </g>
              <path id="Path_162" data-name="Path 162" d="M1571.8,1565.4s5.2,69.767,5.662,72.251a8.676,8.676,0,0,0,9.533-.087c-.029-3.409,3.7-31.951,4.1-37.3.664-9.216,1.762-20.829-4.044-34.06Z" transform="translate(-1530.775 -1467.062)" fill="#00468b"/>
              <g id="Group_91" data-name="Group 91" transform="translate(0 14.997)">
                <path id="Path_163" data-name="Path 163" d="M1444.008,1391.718s-1.416,3.409-7.713,1.3c0,0-6.645-.058-6.5-8.7.578-34,15.484-69.247,15.484-69.247s16.785-1.589,28.167,8.493C1473.445,1323.569,1456.459,1365.862,1444.008,1391.718Z" transform="translate(-1429.792 -1303.986)" fill="#0058a9"/>
                <path id="Path_164" data-name="Path 164" d="M1482.647,1286.76a14.728,14.728,0,1,0,18.778-9.013A14.732,14.732,0,0,0,1482.647,1286.76Z" transform="translate(-1466.785 -1276.913)" fill="#0058a9"/>
              </g>
              <path id="Path_165" data-name="Path 165" d="M1529.618,1252.56c-1.791-16.38-10-23.978-10-23.978L1491.167,1225s-7.858,13.665-8.667,27.56c3.409,9.273,15.513,11.989,15.513,11.989l9.216,2.744S1528.116,1264.116,1529.618,1252.56Z" transform="translate(-1467.273 -1225)" fill="#0058a9"/>
              <g id="Group_92" data-name="Group 92" transform="translate(0.758 94.909)">
                <path id="Path_166" data-name="Path 166" d="M1432.99,1560.714s14.127,73.263,14.965,75.66c-.375-.173,6.673,3.236,9.793-1.184-.52-3.38-.838-40.589-1.242-45.962-.693-9.216-.607-17.8-8.32-30.016C1448.156,1559.241,1428.887,1545.461,1432.99,1560.714Z" transform="translate(-1432.417 -1553.529)" fill="#0058a9"/>
              </g>
            </g>
            <path id="Path_167" data-name="Path 167" d="M1520.7,1759.5" transform="translate(-1457.895 -1500.402)" fill="#340f08"/>
            <g id="Group_96" data-name="Group 96" transform="translate(83.092 39.154)">
              <g id="Group_94" data-name="Group 94" transform="translate(2.419 39.33)">
                <path id="Path_168" data-name="Path 168" d="M1614.784,1134.3s-5.171,6.1-15.484,20.858l1.791,3.033s17.651-8.9,23.284-18.893Z" transform="translate(-1599.3 -1134.3)" fill="#e59375"/>
              </g>
              <g id="Group_95" data-name="Group 95">
                <path id="Path_169" data-name="Path 169" d="M1594.241,1015.649s13.289,29,21.291,27.907c0,0,2.744.173,3.293-1.907,0,0,5.633-5-17.8-41.08a7.247,7.247,0,0,0-6.991-2.282C1594.039,998.316,1586.9,1003.025,1594.241,1015.649Z" transform="translate(-1590.927 -998.16)" fill="#e59375"/>
              </g>
            </g>
            <g id="Group_97" data-name="Group 97" transform="translate(64.914 33.937)">
              <rect id="Rectangle_9" data-name="Rectangle 9" width="14.358" height="15.282" fill="#f4b78e"/>
            </g>
            <g id="Group_98" data-name="Group 98" transform="translate(54.358 2.058)">
              <path id="Path_170" data-name="Path 170" d="M1493.118,901.976l-.549-2.455-1.069-8.956a8.272,8.272,0,0,1,.52-3.64,8.118,8.118,0,0,0,.722-3.727c-.549-6.384,3.582-9.36,3.582-9.36,4.911-5.2,14.358-3.958,14.358-3.958,4.882.924,9.071,3,11.267,7.193,1.993,3.813,2.918,8.378,1.358,12.422-1.733,4.449-4.738,7.829-8.638,10.862-2.484,1.936-4.94,2.051-8.089,2.918a34.577,34.577,0,0,1-8.638.693C1496.73,903.969,1493.436,903.392,1493.118,901.976Z" transform="translate(-1491.46 -869.751)" fill="#f7a483"/>
            </g>
            <g id="Group_99" data-name="Group 99" transform="translate(62.545 26.022)">
              <path id="Path_171" data-name="Path 171" d="M1519.8,952.7" transform="translate(-1519.8 -952.7)" fill="#340f08"/>
            </g>
            <g id="Group_100" data-name="Group 100" transform="translate(55.619)">
              <path id="Path_172" data-name="Path 172" d="M1502.752,888.647c.722-1.011,3.293-1.618,3.293-1.618,3.12,0,2.716,4.16,3,5.98.087.578.2,1.184.347,1.791,1.473,5.287,5.922,5.258,9.735,5.893l.433-.26a15.462,15.462,0,0,1,2.889-4.8c5.72-4.94,7.569-13.809,5.4-20.8a16.423,16.423,0,0,0-3.553-5.951,21.176,21.176,0,0,0-11.816-6.1c-4.42-.838-20.251,1.3-15.918,10.92,0-.029,6.529,7.482,6.182,14.936" transform="translate(-1495.826 -862.626)" fill="#340f08"/>
            </g>
            <g id="Group_108" data-name="Group 108" transform="translate(62.545 23.55)">
              <g id="Group_104" data-name="Group 104">
                <g id="Group_101" data-name="Group 101" transform="translate(0 0.313)">
                  <path id="Path_173" data-name="Path 173" d="M1519.8,947.387a3,3,0,0,1,3.524-2.051,2.387,2.387,0,0,1,1.733,2.542c-.029.26-.087.52-.116.78-.462,2.744-3.351,3.785-3.351,3.785" transform="translate(-1519.8 -945.229)" fill="#f8b78f"/>
                </g>
                <g id="Group_102" data-name="Group 102" transform="translate(0.965 1.488)">
                  <path id="Path_174" data-name="Path 174" d="M1525.411,949.5a1.767,1.767,0,0,0-.693-.2c-1.04-.058-1.878,1.56-.838,1.849a.606.606,0,0,1,0,.838c-.346.4-.838.953-.722,1.5.058.318.433.491.751.578.26.058.318-.144.116-.231a1.519,1.519,0,0,1-.4-.318c0-.029-.029-.029-.029-.058l-.029-.029a.321.321,0,0,1,0-.231.65.65,0,0,0,.809,0c.2-.231.058-.607.116-.9a3.119,3.119,0,0,1,.231-.549c.491-.809-.375-.924-.375-.924a.987.987,0,0,0-.318.029c-.433-.231.058-.9.318-.982a.838.838,0,0,1,.925.173,1.194,1.194,0,0,1,.289.924,2.957,2.957,0,0,1-.289,1.1,6.535,6.535,0,0,1-.318.635c-.116.231.144.318.26.087a6.159,6.159,0,0,0,.751-1.82A1.475,1.475,0,0,0,1525.411,949.5Z" transform="translate(-1523.14 -949.295)" fill="#dd9d7e"/>
                </g>
                <g id="Group_103" data-name="Group 103">
                  <path id="Path_175" data-name="Path 175" d="M1519.8,946.617s.116-.173.318-.491a2.208,2.208,0,0,1,.433-.491,3.127,3.127,0,0,1,.665-.52,2.369,2.369,0,0,1,.9-.318,2.984,2.984,0,0,1,1.011.058,2.629,2.629,0,0,1,.52.231,1.406,1.406,0,0,1,.4.318,2.028,2.028,0,0,1,.549.924,3.073,3.073,0,0,1,.029,1.156l-.029.318v.029h0V947.8h0v.029l-.029.087-.029.144a2.526,2.526,0,0,1-.144.549,3.913,3.913,0,0,1-.491.982,5.738,5.738,0,0,1-.636.78,6.171,6.171,0,0,1-1.184.982c-.318.2-.52.318-.52.318s.2-.058.578-.2a5.229,5.229,0,0,0,1.387-.809,3.985,3.985,0,0,0,.78-.78,3.284,3.284,0,0,0,.635-1.069,2.693,2.693,0,0,0,.2-.636l.029-.144.029-.087v-.116l.058-.318a3.331,3.331,0,0,0,0-1.415,2.356,2.356,0,0,0-.78-1.242,1.132,1.132,0,0,0-.289-.231l-.318-.173a3.259,3.259,0,0,0-.636-.231,2.477,2.477,0,0,0-1.3.029,2.793,2.793,0,0,0-1.011.52,2.834,2.834,0,0,0-.636.693,3.454,3.454,0,0,0-.346.607A3.547,3.547,0,0,1,1519.8,946.617Z" transform="translate(-1519.8 -944.145)" fill="#dd9d7e"/>
                </g>
              </g>
              <g id="Group_107" data-name="Group 107" transform="translate(0.087 5.938)">
                <g id="Group_105" data-name="Group 105">
                  <path id="Path_176" data-name="Path 176" d="M1521.833,965.567a.851.851,0,0,1-.867.867.867.867,0,0,1,0-1.733A.889.889,0,0,1,1521.833,965.567Z" transform="translate(-1520.1 -964.7)" fill="#fff"/>
                </g>
                <g id="Group_106" data-name="Group 106" transform="translate(0 0.029)">
                  <path id="Path_177" data-name="Path 177" d="M1521.169,966.129a.7.7,0,0,1-.693-.693.651.651,0,0,1,.491-.636h0a.867.867,0,1,0,.867.867v-.058A.711.711,0,0,1,1521.169,966.129Z" transform="translate(-1520.1 -964.8)" fill="#e6e7e8"/>
                </g>
              </g>
            </g>
            <g id="Group_109" data-name="Group 109" transform="translate(46.164 39.207)">
              <path id="Path_178" data-name="Path 178" d="M1519.289,1074.249c-.058-.087-15.86-22.765-15.86-22.765-.751-3.351.925-10,.925-10l5.084-34.869c-.606-3.987-.867-9.071-6.3-8.176a33.973,33.973,0,0,0-6.933,1.935c.693,3.236-4.911,5.316-4.911,5.316-7.685,3.322-9.476,1.127-9.476,1.127-2.051,1.1-8.956,4.565-10.776,6.038-1.878,1.531-3,3.929-2.4,7.945l5.547,33.049-.983,8.2-10.111,25.624a21.588,21.588,0,0,1,9.851-1.184c3.149.376,5.865,2.224,8.984,2.571,4.709.52,8.233-1.184,11.787-3.438a55.95,55.95,0,0,0,13.636-4.8h.289c3.524.029,7.54-.029,10.14-2.8C1518.335,1077.514,1519.953,1075.2,1519.289,1074.249Z" transform="translate(-1463.1 -998.341)" fill="#4f1531"/>
            </g>
            <g id="Group_110" data-name="Group 110" transform="translate(47.609 53.667)">
              <path id="Path_179" data-name="Path 179" d="M1468.1,1101.379l.087-40.156c.982-11.007,6.442-12.769,6.442-12.769,11.036-1.3,9.331,19.182,9.331,19.182l-4.622,34.609" transform="translate(-1468.1 -1048.395)" fill="#f7a483"/>
            </g>
            <g id="Group_111" data-name="Group 111" transform="translate(0 118.707)">
              <path id="Path_180" data-name="Path 180" d="M1315.722,1283.432c5.056-2.715,5.518-3.582,6.413-4.853,3.842-5.46-3.929-5.287-5.893-4.853-1.127.26-1.185,2.947-4.68,6.211,0,0-5.489,3.178-6.847,2.947,0,0-1.416.2-1.416,1.214C1303.329,1284.1,1307.171,1286.379,1315.722,1283.432Z" transform="translate(-1303.3 -1273.533)" fill="#f7a483"/>
            </g>
            <g id="Group_114" data-name="Group 114" transform="translate(13.452 101.059)">
              <g id="Group_112" data-name="Group 112" transform="translate(41.379 0.074)">
                <path id="Path_181" data-name="Path 181" d="M1493.1,1212.7" transform="translate(-1493.1 -1212.7)" fill="#f8b78f"/>
              </g>
              <g id="Group_113" data-name="Group 113">
                <path id="Path_182" data-name="Path 182" d="M1384.832,1213.817l-34.407,18.836c-1.473,4.131.433,4.738.433,4.738l26.636-7.656c11.382-3.033,15.889-7.829,15.889-7.829s4.969-3.438-1.387-8.58C1392,1213.326,1389.107,1211.044,1384.832,1213.817Z" transform="translate(-1349.866 -1212.443)" fill="#f7a483"/>
              </g>
            </g>
            <g id="Group_115" data-name="Group 115" transform="translate(58.206 0.475)">
              <path id="Path_183" data-name="Path 183" d="M1506.086,887.331c.9,6.673-.116,15.484,3.207,22.764,1.473,3.236,3.12,4.853,2.224,8.609-.722,3.091-2.167,5.98-2.976,9.158-1.733,7.02.636,13.9,8.811,11.353,3.929-1.213,4.362-1.213,7.944.173,3,1.156,5.836,1.5,8.811.029,4.622-2.253,3.236-5.662,5.836-9.071,1.964-2.6,4.767-2.542,6.269-6.038,1.791-4.218-.347-6.471-2.542-10.053-2.282-3.727-2.658-6.182-1.907-10.689.636-3.784-.318-5.691-1.56-9.158-1.271-3.553-.722-6.673-1.329-10.227-1.213-7.049-5.056-16.64-12.451-18.72-3.64-1.011-8.32-1.82-11.787-.52-4.738,1.733-10.053,3.611-9.851,9.447A96.761,96.761,0,0,0,1506.086,887.331Z" transform="translate(-1504.78 -864.269)" fill="#340f08"/>
            </g>
            <path id="Path_184" data-name="Path 184" d="M1334.676,1267.948s.953,2.831-2.542,2.138l-3.438-2.629a1.359,1.359,0,0,1-.693-1.589s.4-.578,1.5,0Z" transform="translate(-1320.81 -1149.193)" fill="#f7a483"/>
          </g>
        </g>
      </g>
      <g id="Group_119" data-name="Group 119" transform="translate(33.396 0)">
        <path id="Path_185" data-name="Path 185" d="M1563.147,154.673a11.873,11.873,0,1,1-11.873-11.873A11.873,11.873,0,0,1,1563.147,154.673Z" transform="translate(-1128.079 -129.511)" fill="#7fc78d"/>
        <circle id="Ellipse_2" data-name="Ellipse 2" cx="11.873" cy="11.873" r="11.873" transform="translate(40.907 512.462)" fill="#7fc78d"/>
        <path id="Path_186" data-name="Path 186" d="M256.487,475.893a8.493,8.493,0,1,1-8.493-8.493A8.489,8.489,0,0,1,256.487,475.893Z" transform="translate(-203.707 -360.337)" fill="#f38db6"/>
        <path id="Path_187" data-name="Path 187" d="M1951.887,696.793a8.493,8.493,0,1,1-8.493-8.493A8.507,8.507,0,0,1,1951.887,696.793Z" transform="translate(-1409.323 -517.422)" fill="#f38db6"/>
        <path id="Path_188" data-name="Path 188" d="M1137.987,412.993a8.493,8.493,0,1,1-8.493-8.493A8.507,8.507,0,0,1,1137.987,412.993Z" transform="translate(-830.55 -315.609)" fill="#98c4e9"/>
        <path id="Path_189" data-name="Path 189" d="M132.587,1094.293a8.493,8.493,0,1,1-8.493-8.493A8.489,8.489,0,0,1,132.587,1094.293Z" transform="translate(-115.6 -800.088)" fill="#a4def6"/>
        <path id="Path_190" data-name="Path 190" d="M1975.487,1287.893a8.493,8.493,0,1,1-8.493-8.494A8.507,8.507,0,0,1,1975.487,1287.893Z" transform="translate(-1426.105 -937.758)" fill="#a4def6"/>
        <circle id="Ellipse_3" data-name="Ellipse 3" cx="8.493" cy="8.493" r="8.493" transform="translate(226.663)" fill="#ffd47c"/>
        <path id="Path_191" data-name="Path 191" d="M1839.487,1744.293a8.493,8.493,0,1,1-8.494-8.493A8.489,8.489,0,0,1,1839.487,1744.293Z" transform="translate(-1329.394 -1262.31)" fill="#ffd47c"/>
      </g>
      <g id="Group_128" data-name="Group 128" transform="translate(19.905 46.107)">
        <g id="Group_127" data-name="Group 127">
          <g id="Group_120" data-name="Group 120" transform="translate(0 314.428)">
            <line id="Line_1" data-name="Line 1" x2="26.665" fill="none" stroke="#699fd5" stroke-miterlimit="10" stroke-width="12.473"/>
            <line id="Line_2" data-name="Line 2" x2="13.347" transform="translate(30.622)" fill="none" stroke="#699fd5" stroke-miterlimit="10" stroke-width="12.473"/>
          </g>
          <g id="Group_121" data-name="Group 121" transform="translate(516.506 371.31)">
            <line id="Line_3" data-name="Line 3" x2="31.056" fill="none" stroke="#699fd5" stroke-miterlimit="10" stroke-width="13.462"/>
            <line id="Line_4" data-name="Line 4" x2="15.542" transform="translate(35.678)" fill="none" stroke="#699fd5" stroke-miterlimit="10" stroke-width="13.462"/>
          </g>
          <g id="Group_122" data-name="Group 122" transform="translate(222.243 472.508)">
            <line id="Line_5" data-name="Line 5" x1="26.636" transform="translate(17.304)" fill="none" stroke="#699fd5" stroke-miterlimit="10" stroke-width="12.473"/>
            <line id="Line_6" data-name="Line 6" x1="13.318" fill="none" stroke="#699fd5" stroke-miterlimit="10" stroke-width="12.473"/>
          </g>
          <g id="Group_123" data-name="Group 123" transform="translate(478.373 11.382)">
            <line id="Line_7" data-name="Line 7" x2="11.18" transform="translate(12.971)" fill="none" stroke="#699fd5" stroke-miterlimit="10" stroke-width="12.473"/>
            <line id="Line_8" data-name="Line 8" x2="9.678" transform="translate(27.04)" fill="none" stroke="#699fd5" stroke-miterlimit="10" stroke-width="12.473"/>
            <line id="Line_9" data-name="Line 9" x2="9.649" fill="none" stroke="#699fd5" stroke-miterlimit="10" stroke-width="12.473"/>
          </g>
          <line id="Line_10" data-name="Line 10" x2="39.289" transform="translate(527.917 199.478)" fill="none" stroke="#699fd5" stroke-miterlimit="10" stroke-width="12.473"/>
          <g id="Group_124" data-name="Group 124" transform="translate(324.019)">
            <line id="Line_11" data-name="Line 11" x2="3.727" y2="3.698" fill="none" stroke="#699fd5" stroke-miterlimit="10" stroke-width="12.473"/>
            <line id="Line_12" data-name="Line 12" x2="3.698" y2="3.727" transform="translate(6.356 6.327)" fill="none" stroke="#699fd5" stroke-miterlimit="10" stroke-width="12.473"/>
            <line id="Line_13" data-name="Line 13" x1="3.698" y2="3.698" transform="translate(6.356)" fill="none" stroke="#699fd5" stroke-miterlimit="10" stroke-width="12.473"/>
            <line id="Line_14" data-name="Line 14" x1="3.727" y2="3.727" transform="translate(0 6.327)" fill="none" stroke="#699fd5" stroke-miterlimit="10" stroke-width="12.473"/>
          </g>
          <g id="Group_125" data-name="Group 125" transform="translate(11.931 125.089)">
            <line id="Line_15" data-name="Line 15" x2="3.698" y2="3.698" fill="none" stroke="#699fd5" stroke-miterlimit="10" stroke-width="12.473"/>
            <line id="Line_16" data-name="Line 16" x2="3.727" y2="3.727" transform="translate(6.327 6.327)" fill="none" stroke="#699fd5" stroke-miterlimit="10" stroke-width="12.473"/>
            <line id="Line_17" data-name="Line 17" x1="3.727" y2="3.698" transform="translate(6.327)" fill="none" stroke="#699fd5" stroke-miterlimit="10" stroke-width="12.473"/>
            <line id="Line_18" data-name="Line 18" x1="3.698" y2="3.727" transform="translate(0 6.327)" fill="none" stroke="#699fd5" stroke-miterlimit="10" stroke-width="12.473"/>
          </g>
          <g id="Group_126" data-name="Group 126" transform="translate(291.837 356.808)">
            <line id="Line_19" data-name="Line 19" x2="3.698" y2="3.727" fill="none" stroke="#699fd5" stroke-miterlimit="10" stroke-width="12.473"/>
            <line id="Line_20" data-name="Line 20" x2="3.727" y2="3.698" transform="translate(6.327 6.356)" fill="none" stroke="#699fd5" stroke-miterlimit="10" stroke-width="12.473"/>
            <line id="Line_21" data-name="Line 21" x1="3.727" y2="3.727" transform="translate(6.327)" fill="none" stroke="#699fd5" stroke-miterlimit="10" stroke-width="12.473"/>
            <line id="Line_22" data-name="Line 22" x1="3.698" y2="3.698" transform="translate(0 6.356)" fill="none" stroke="#699fd5" stroke-miterlimit="10" stroke-width="12.473"/>
          </g>
          <circle id="Ellipse_4" data-name="Ellipse 4" cx="4.622" cy="4.622" r="4.622" transform="translate(105.069 47.638)" fill="none" stroke="#699fd5" stroke-miterlimit="10" stroke-width="12.473"/>
          <path id="Path_192" data-name="Path 192" d="M1495.345,500.822a4.622,4.622,0,1,1-4.622-4.622A4.617,4.617,0,0,1,1495.345,500.822Z" transform="translate(-1076.685 -426.924)" fill="none" stroke="#699fd5" stroke-miterlimit="10" stroke-width="12.473"/>
        </g>
      </g>
    </g>
  </g>
</svg>
