<svg xmlns="http://www.w3.org/2000/svg" width="2591.34" height="511.282" viewBox="0 0 2591.34 511.282">
  <g id="wave" transform="translate(11 -0.844)" opacity="0.5">
    <path id="Path_194" data-name="Path 194" d="M-11,83.936c384.325,0,451.343,106.469,739.413,106.469S1350.51,3.844,1739.03,3.844s508.53,126.03,841.31,126.03" fill="none" stroke="rgba(112,112,112,0.06)" stroke-width="6"/>
    <path id="Path_195" data-name="Path 195" d="M-11,108.452c384.325,0,451.343,106.469,739.413,106.469S1350.51,28.36,1739.03,28.36s508.53,126.031,841.31,126.031" fill="none" stroke="rgba(112,112,112,0.06)" stroke-width="6"/>
    <path id="Path_196" data-name="Path 196" d="M-11,182c384.325,0,451.343,106.469,739.413,106.469s622.1-186.562,1010.617-186.562,508.53,126.031,841.31,126.031" fill="none" stroke="rgba(112,112,112,0.06)" stroke-width="6"/>
    <path id="Path_197" data-name="Path 197" d="M-11,206.521c384.325,0,451.343,106.469,739.413,106.469s622.1-186.561,1010.617-186.561,508.53,126.03,841.31,126.03" fill="none" stroke="rgba(112,112,112,0.06)" stroke-width="6"/>
    <path id="Path_198" data-name="Path 198" d="M-11,132.97c384.325,0,451.343,106.469,739.413,106.469S1350.51,52.878,1739.03,52.878s508.53,126.03,841.31,126.03" fill="none" stroke="rgba(112,112,112,0.06)" stroke-width="6"/>
    <path id="Path_199" data-name="Path 199" d="M-11,157.487c384.325,0,451.343,106.469,739.413,106.469S1350.51,77.4,1739.03,77.4s508.53,126.031,841.31,126.031" fill="none" stroke="rgba(112,112,112,0.06)" stroke-width="6"/>
    <path id="Path_200" data-name="Path 200" d="M-11,280.073c384.325,0,451.343,106.469,739.413,106.469S1350.51,199.98,1739.03,199.98s508.53,126.031,841.31,126.031" fill="none" stroke="rgba(112,112,112,0.06)" stroke-width="6"/>
    <path id="Path_201" data-name="Path 201" d="M-11,304.589c384.325,0,451.343,106.469,739.413,106.469S1350.51,224.5,1739.03,224.5s508.53,126.03,841.31,126.03" fill="none" stroke="rgba(112,112,112,0.06)" stroke-width="6"/>
    <path id="Path_202" data-name="Path 202" d="M-11,231.038c384.325,0,451.343,106.469,739.413,106.469s622.1-186.562,1010.617-186.562,508.53,126.031,841.31,126.031" fill="none" stroke="rgba(112,112,112,0.06)" stroke-width="6"/>
    <path id="Path_203" data-name="Path 203" d="M-11,255.555c384.325,0,451.343,106.469,739.413,106.469s622.1-186.561,1010.617-186.561,508.53,126.03,841.31,126.03" fill="none" stroke="rgba(112,112,112,0.06)" stroke-width="6"/>
    <path id="Path_204" data-name="Path 204" d="M-11,378.14c384.325,0,451.343,106.469,739.413,106.469s622.1-186.561,1010.617-186.561,508.53,126.031,841.31,126.031" fill="none" stroke="rgba(112,112,112,0.06)" stroke-width="6"/>
    <path id="Path_205" data-name="Path 205" d="M-11,402.657c384.325,0,451.343,106.469,739.413,106.469s622.1-186.562,1010.617-186.562S2247.56,448.6,2580.34,448.6" fill="none" stroke="rgba(112,112,112,0.06)" stroke-width="6"/>
    <path id="Path_206" data-name="Path 206" d="M-11,329.105c384.325,0,451.343,106.469,739.413,106.469s622.1-186.561,1010.617-186.561,508.53,126.03,841.31,126.03" fill="none" stroke="rgba(112,112,112,0.06)" stroke-width="6"/>
    <path id="Path_207" data-name="Path 207" d="M-11,353.623c384.325,0,451.343,106.469,739.413,106.469s622.1-186.561,1010.617-186.561,508.53,126.03,841.31,126.03" fill="none" stroke="rgba(112,112,112,0.06)" stroke-width="6"/>
  </g>
</svg>
